<svg xmlns="http://www.w3.org/2000/svg" viewBox="0 0 281 257" fill-rule="evenodd" stroke-linejoin="round" stroke-miterlimit="2"><path d="M17.953 170.93l47.405 79.098 34.283-56.14c-43.536 7.976-35.704-36.735-11.114-21.909 4.963-18.913-29.071-34.808-70.574-1.049z" fill="#375ca5"/><path d="M170.431 77.95c18.653 18.647 20.698 19.986 20.698 19.986l23.403-21.564 20.603 18.698 21.612-16.496-42.632-71.33c-14.854 22.822-28.802 46.579-43.684 70.706z" fill="#e8e8e8"/><path d="M2.604 149.266l62.888 104.687L213.781 4.393l43.934 73.45-21.622 19.824-21.522-21.654-23.003 22.666-21.678-20.422-67.877 114.233c-53.331 4.512-31.252-36.846-17.393-20.141 11.967-1.054-1.945-48.485-69.563-2.375" fill="none" stroke="#000" stroke-width="5.21" stroke-linecap="round" stroke-miterlimit="1.5"/><path d="M172.014 157.388c-.176-1.112-.397-1.797-.661-2.053a26.888 26.888 0 001.389-4.557l.728-4.3.595-3.338a20.83 20.83 0 01.86-2.952c1.499-.342 2.624-.963 3.373-1.861s1.345-1.69 1.786-2.375c1.588-.085 2.624.129 3.109.642s1.037 1.369 1.654 2.567c.441.942 1.058 1.947 1.852 3.017s1.985 1.904 3.572 2.503c.265.941.573 1.84.926 2.695l1.191 2.696 2.249 5.584c.705 1.925 1.102 3.743 1.19 5.455-1.058 1.968-1.874 4.236-2.447 6.803a46.33 46.33 0 00-1.058 7.766c-.133 2.61-.067 5.113.198 7.509s.706 4.407 1.323 6.033l.794 2.054 2.91-.257c3.175-.77 6.042-1.647 8.6-2.632s4.939-2.16 7.143-3.529a50.17 50.17 0 006.351-4.686c2.029-1.755 4.145-3.829 6.35-6.225 2.117-2.396 4.013-5.113 5.689-8.151s3.064-6.183 4.167-9.434a72.44 72.44 0 002.58-9.756c.618-3.252 1.014-6.289 1.19-9.113 1.676-.771 2.602-2.011 2.778-3.723l-.396-1.669c-.265-.427-.375-.834-.331-1.219s.154-.749.331-1.091c.705-1.968 2.205-3.423 4.498-4.364a38.195 38.195 0 014.432 3.337 59.57 59.57 0 013.77 3.594c.176 2.311.529 4.3 1.058 5.969a68.97 68.97 0 001.72 4.813l1.654 4.236s.816 3.038.992 5.006c-.882 2.568-1.521 4.985-1.918 7.253a225.1 225.1 0 00-1.125 7.124l-.264 1.412a286.33 286.33 0 00-4.697 8.151l-3.77 7.252a8.24 8.24 0 00-1.389 1.797 47.38 47.38 0 00-1.125 2.054c-.176.256-.419.684-.727 1.283s-.596 1.027-.86 1.284l-3.175-1.155-.794 3.979-2.117.513-1.588 1.797c-2.028 3.423-4.167 6.29-6.416 8.601a43.28 43.28 0 01-7.541 6.161c-2.778 1.797-5.909 3.487-9.393 5.07s-7.474 3.273-11.972 5.07c-1.764-.256-3.286-.406-4.565-.449s-2.535-.107-3.77-.193a47.8 47.8 0 01-3.572-.128c-1.147-.085-2.47-.214-3.969-.385-.353-.77-.838-1.326-1.455-1.669s-1.191-.513-1.72-.513c-1.764-.856-3.087-2.054-3.969-3.594s-1.808-3.252-2.778-5.135a95.86 95.86 0 00-1.389-3.08 17.137 17.137 0 00-1.786-2.953l2.646-.77-3.44-3.85a14.8 14.8 0 00-.86-.771 5.662 5.662 0 01-.86-.898v-2.439c-.353-7.017-.507-13.499-.463-19.447s.86-11.188 2.448-15.724l.264-.642zM19.687 85.866l-1.247-2.709-1.251-2.324-2.619-5.547c-.748-1.633-1.451-3.523-2.109-5.67l1.415-7.302 2.347-11.208 2.869-12.357c1.021-4.183 2.057-7.767 3.108-10.751l3.211-8.439c1.178-2.983 2.482-5.729 3.91-8.239s2.959-4.655 4.593-6.435 3.386-2.832 5.259-3.154c.503.689 1.05 1.23 1.641 1.621s1.14.675 1.648.852c1.424 2.068 2.808 3.816 4.153 5.242s2.945 2.833 4.8 4.221c-.536 2.562-1.309 5.4-2.319 8.513l-3.157 9.402-3.219 9.145c-1.05 2.941-1.884 5.479-2.501 7.612a95.796 95.796 0 00-1.591 5.888c-.444 1.878-.914 4.141-1.409 6.789s-.971 5.552-1.429 8.714c1.193-.33 2.539-1 4.037-2.012a46.35 46.35 0 004.176-3.166 66.634 66.634 0 004.504-4.061c1.975-1.947 3.651-3.727 5.027-5.339a53.72 53.72 0 003.813-5.031 141.562 141.562 0 003.63-5.739l4.475-7.463 4.863-7.908c1.687-2.807 3.393-5.485 5.119-8.034s3.408-4.907 5.046-7.072 3.142-3.84 4.514-5.024c.925.951 1.998 1.947 3.22 2.986s2.552 1.781 3.993 2.224c.585.947 1.15 1.788 1.694 2.521l1.572 2.134 1.822 2.586a14.942 14.942 0 011.439 2.583c-.092.683-.25 1.58-.474 2.69l-.739 3.651-.871 4.035-.87 3.97-2.003 8.708c-.445 1.964-.758 3.501-.94 4.612s-.297 2.051-.348 2.82-.083 1.839-.097 3.208a18.843 18.843 0 00.223 3.084c.16.943.341 1.907.544 2.893a7.63 7.63 0 001.182 2.773l6.168-4.686c1.713-1.266 3.368-3.067 4.964-5.404s3.155-5.016 4.673-8.039 3.019-6.301 4.501-9.837l4.448-10.929 3.207-8.118c1.091-2.685 2.201-5.241 3.331-7.668s2.237-4.641 3.32-6.64 2.142-3.679 3.176-5.038c2.279 1.478 4.24 2.954 5.882 4.426a27.19 27.19 0 014.284 4.858c1.214 1.767 2.17 3.788 2.869 6.063s1.202 4.954 1.51 8.038a163.856 163.856 0 00-5.341 10.985l-4.962 11.373-6.464 14.759c-2.218 4.898-4.668 9.558-7.348 13.98s-5.677 8.478-8.987 12.166-7.103 6.794-11.379 9.317c-1.187-.269-2.206-.408-3.056-.417-.934-.01-1.722.11-2.362.36a6.35 6.35 0 00-1.731 1.009 20.09 20.09 0 01-8.338-7.339c-2.091-3.231-4.136-6.825-6.135-10.782a21.712 21.712 0 00-.811-1.742l-.938-1.742-2.125-4.002-1.25-2.452-1.802 1.65-2.702 2.411-1.546 1.525a256.325 256.325 0 01-8.106 7.168 76.9 76.9 0 01-8.607 6.329c-2.994 1.895-6.176 3.423-9.545 4.586s-6.967 1.768-10.792 1.814l-3.424-1.704c-1.945-.962-3.55-1.877-4.816-2.746s-2.739-2.211-4.42-4.025z" fill-rule="nonzero"/></svg>
