<?xml version="1.0" encoding="UTF-8" standalone="no"?>
<!DOCTYPE svg PUBLIC "-//W3C//DTD SVG 1.1//EN" "http://www.w3.org/Graphics/SVG/1.1/DTD/svg11.dtd">
<svg preserveAspectRatio="none" version="1.1" xmlns="http://www.w3.org/2000/svg" xmlns:xlink="http://www.w3.org/1999/xlink" xml:space="preserve" xmlns:serif="http://www.serif.com/" style="fill-rule:evenodd;clip-rule:evenodd;stroke-linejoin:round;stroke-miterlimit:2;">
    <g transform="matrix(4.16667,0,0,4.16667,0,0)">
        <g transform="matrix(-1,-1.22465e-16,1.22465e-16,-1,3000,2000)">
            <g transform="matrix(3.75,0,0,3.33333,0,0)">
                <rect x="0" y="0" width="100%" height="100%" style="fill:rgb(223,71,89);"/>
            </g>
            <g transform="matrix(3.75,0,0,3.17352,0,95.8904)">
                <path d="M383,388.878C248.428,274.815 0,258.633 0,258.633L0,600L800,600C800,600 492.849,481.985 383,388.878Z" style="fill:rgb(90,177,238);"/>
            </g>
            <g transform="matrix(-3.75,3.14012e-17,3.36326e-17,-2.9294,3000,1757.64)">
                <path d="M383,388.878C248.428,274.815 0,258.633 0,258.633L0,600L800,600C800,600 492.849,481.985 383,388.878Z" style="fill:rgb(251,130,97);"/>
            </g>
        </g>
    </g>
</svg>
