<svg viewBox="0 0 449 449" xmlns="http://www.w3.org/2000/svg" fill-rule="evenodd" clip-rule="evenodd" stroke-linejoin="round" stroke-miterlimit="2"><path fill="none" d="M0 0h449v449H0z"/><path fill="none" d="M0 0h449v449H0z"/><g fill-rule="nonzero"><path d="M379.244 243.439c42.634-47.255 42.603-123.774-.097-170.984-41.073-45.413-106.673-47.175-149.651-5.286-2.861 2.789-7.129 2.789-9.992 0-42.978-41.889-108.577-40.127-149.653 5.286-42.698 47.21-42.729 123.729-.095 170.984l149.432 165.226c2.934 3.245 7.692 3.245 10.626 0l149.43-165.226z" fill="#df4759" stroke="#61dafb" stroke-width="4.39"/><path d="M380.32 239.373L224.5 411.98l-20.854-24.587 149.242-158.907c42.887-45.845 42.858-120.083-.097-165.878-7.153-7.624-7.12-11.445-15.508-16.529 19.35 4.793 29.784 12.693 44.87 28.776 35.071 48.962 36.273 115.966-1.833 164.518z" fill="#2d3242" fill-opacity=".17"/></g><path d="M233.078 271.884c4.944-5.058 4.852-13.179-.206-18.124l-42.154-41.211c-5.058-4.944-13.179-4.853-18.124.205l-69.374 70.963c-4.945 5.058-4.853 13.179.205 18.124l42.155 41.21c5.058 4.945 13.179 4.853 18.123-.205l69.375-70.962z" fill="#161c2d" fill-opacity=".19"/><path d="M228.078 266.884c4.944-5.058 4.852-13.179-.206-18.124l-42.154-41.211c-5.058-4.944-13.179-4.853-18.124.205L98.22 278.717c-4.945 5.058-4.853 13.179.205 18.124l42.155 41.21c5.058 4.945 13.179 4.853 18.123-.205l69.375-70.962z" fill="#e0c59d"/><path d="M173.653 288.797a1.434 1.434 0 00-.023-2.028l-21.188-20.714a1.435 1.435 0 00-2.028.023l-39.792 40.703a1.435 1.435 0 00.023 2.028l21.188 20.714a1.435 1.435 0 002.028-.023l39.792-40.703z" fill="#161c2d" fill-opacity=".14"/></svg>
