<svg viewBox="0 0 449 449" xmlns="http://www.w3.org/2000/svg" fill-rule="evenodd" clip-rule="evenodd" stroke-linejoin="round" stroke-miterlimit="2"><path fill="none" d="M0 0h449v449H0z"/><path fill="none" d="M0 0h449v449H0z"/><path d="M189.846 398.335c-.007.512.038 1.006.173 1.402.356 1.05 1.133 2.139 2.296 3.127 1.458 1.24 3.742 2.417 5.23 3.614 3.226 2.593 9.117 4.192 14.868 4.968 4.764.643 9.381.794 11.888.792 6.63-.004 21.609.789 33.332-13.281a3.43 3.43 0 00-5.268-4.389c-9.828 11.795-22.51 10.81-28.068 10.814-2.314.002-6.573-.138-10.967-.731-4.407-.595-9.016-1.529-11.488-3.516-1.116-.898-2.653-1.791-4.002-2.697a14.345 14.345 0 01-1.1-.853c.15-.611.36-1.548.348-1.978-.034-1.206-.481-2.207-1.419-3.01-.607-.519-1.674-1.142-3.693-1.13-55.231.326-118.641.325-144.379-1.098-2.661-.147-5.811-2.031-7.741-4.384-.974-1.189-1.724-2.493-1.44-3.809 6.009-27.732 25.07-128.539 30.183-155.027.068-.35.497-.382.879-.536 1.27-.513 2.934-.709 4.704-.781 6.236-.253 13.674 1.282 13.674 1.282a3.43 3.43 0 004.047-2.669 3.43 3.43 0 00-2.669-4.047s-11.503-2.307-18.916-1.064c-4.654.781-7.793 3.109-8.45 6.515-5.109 26.462-24.15 127.171-30.152 154.875-.702 3.237.44 6.683 2.838 9.608 3.126 3.813 8.354 6.644 12.664 6.882 25.477 1.409 87.76 1.436 142.628 1.121z" fill="#61dafb"/><path d="M252.26 397.584c-.301.254-.749.618-1.1.854-1.349.905-2.886 1.799-4.002 2.696-1.822 1.465-4.909 2.317-8.181 2.95-5.587 1.08-11.755 1.3-14.676 1.298-1.276-.001-2.344.09-3.324.132-.869.038-1.631.061-2.515-.33-2.131-.942-4.663-3.457-9.486-9.245a3.43 3.43 0 00-4.828-.44 3.43 3.43 0 00-.439 4.828c5.953 7.146 9.351 9.966 11.982 11.128 2.841 1.256 4.968.78 8.606.783 3.18.002 9.897-.246 15.982-1.423 4.51-.872 8.664-2.318 11.175-4.338 1.489-1.197 3.773-2.374 5.231-3.613 1.163-.989 1.941-2.078 2.296-3.127.135-.397.18-.891.173-1.403 54.868.315 117.15.289 142.628-1.12 4.311-.239 9.538-3.07 12.664-6.883 2.398-2.924 3.539-6.371 2.838-9.607-6.002-27.705-25.043-128.413-30.152-154.876-.657-3.406-3.796-5.734-8.45-6.515-7.413-1.243-18.916 1.064-18.916 1.064a3.43 3.43 0 001.378 6.717s7.438-1.536 13.674-1.282c1.77.072 3.434.268 4.704.781.381.154.811.185.878.535 5.114 26.488 24.175 127.296 30.184 155.027.285 1.316-.465 2.62-1.44 3.809-1.929 2.354-5.08 4.237-7.741 4.384-25.738 1.423-89.148 1.424-144.38 1.098-2.018-.012-3.085.611-3.692 1.13-.938.803-1.386 1.804-1.419 3.01-.012.43.197 1.367.348 1.978z" fill="#df4759"/><path d="M377.239 222.883H71.356c-3.157.004-5.866 2.279-6.466 5.425l-28.9 150.547a13.542 13.542 0 002.792 11.087c2.518 3.085 6.261 4.865 10.206 4.852l142.32.001c0 7.366 14.779 13.395 32.991 13.395 18.211 0 32.989-6.029 32.989-13.395h142.319a13.117 13.117 0 0010.206-4.853 13.554 13.554 0 002.792-11.087l-28.901-150.547c-.599-3.146-3.309-5.421-6.465-5.425z" fill="#161c2d" fill-rule="nonzero"/><g fill="#f1f4f8" fill-rule="nonzero" stroke="#869ab8" stroke-width="4.17"><path d="M224.3 242.37v125.637a151.325 151.325 0 00-30.022-9.646 222.568 222.568 0 00-118.036 6.097 6.598 6.598 0 01-6.303-1.36 6.811 6.811 0 01-2.208-6.141l23.817-145.394c.473-2.871 2.707-5.113 5.543-5.557l13.722-1.875c8.064 15.907 24.207 25.909 41.833 25.917 1.187 0 2.309-.067 3.429-.135a48.598 48.598 0 0012.868-2.812.972.972 0 00.13.402c4.938 14.036 18.046 23.395 32.726 23.374a33.824 33.824 0 0022.501-8.507zM372.358 364.457a222.578 222.578 0 00-118.039-6.097 151.233 151.233 0 00-30.019 9.646V242.369a29.735 29.735 0 003.825-3.818 55.143 55.143 0 0020.719 4.018h.395a23.392 23.392 0 005.147 13.061 49.472 49.472 0 0023.16 13.126 36.068 36.068 0 0116.361 10.982c3.88 4.879 10.451 6.593 16.166 4.221 5.03-2.206 8.296-7.229 8.313-12.791a13.853 13.853 0 00-.659-4.286c-.661-2.077-1.387-4.153-2.244-6.163a52.468 52.468 0 00-6.466-11.653c13.085-7.183 22.275-19.98 25.006-34.823.196-.27.461-.536.66-.806a35.402 35.402 0 005.477-8.972l11.347 1.54c2.836.444 5.069 2.686 5.542 5.557l1.849 11.32 21.971 134.074a6.82 6.82 0 01-2.21 6.141 6.597 6.597 0 01-6.301 1.36z"/></g><path d="M224.299 241.583s-4.095-10.857-47.994-13.713c-19.07-1.24-35.159 115.796-9.599 126.155 9.011 3.653 22.823 4.474 31.858 8.023 13.215 5.192 25.735 7.061 25.735 7.061V241.583z" fill="#8d8d8d" fill-opacity=".22"/><g><g fill-rule="nonzero"><path d="M343.732 191.204a35.354 35.354 0 01-2.902 13.997 35.47 35.47 0 01-5.477 8.974c-.196.267-.461.537-.66.803-2.731 14.844-11.921 27.642-25.006 34.824a52.504 52.504 0 016.465 11.653c.857 2.01 1.584 4.086 2.245 6.162.443 1.386.665 2.832.658 4.287-.016 5.56-3.281 10.585-8.312 12.791-5.716 2.372-12.287.657-16.166-4.218a36.043 36.043 0 00-16.362-10.985 49.475 49.475 0 01-23.159-13.127 23.383 23.383 0 01-5.147-13.057h-.395a55.133 55.133 0 01-20.718-4.021 29.498 29.498 0 01-3.826 3.819 33.809 33.809 0 01-22.501 8.505c-14.681.023-27.789-9.337-32.725-23.372a.946.946 0 01-.132-.403 48.386 48.386 0 01-12.868 2.813c-1.141.08-2.284.125-3.428.134-17.834-.012-34.133-10.237-42.118-26.42-7.985-16.184-6.293-35.557 4.377-50.061a19.808 19.808 0 01-1.189-6.83c-.038-9.897 6.81-18.446 16.363-20.426a.233.233 0 01.132-.067 30.123 30.123 0 01-.132-2.477 26.75 26.75 0 012.244-10.783c4.209-9.883 13.804-16.28 24.412-16.273a25.727 25.727 0 0111.546 2.678c7.025-12.004 19.764-19.359 33.518-19.355 9.438-.034 18.555 3.471 25.6 9.844 4.046-6.62 11.402-10.386 19.052-9.752 7.65.633 14.307 5.566 17.239 12.766a52.22 52.22 0 015.673-.333c25.564.042 46.839 19.948 48.958 45.806h.197c5.436 0 10.65 2.198 14.486 6.106a20.916 20.916 0 015.967 14.723 21.743 21.743 0 01-2.64 10.313 35.854 35.854 0 016.731 20.962z" fill="#df4759"/><path d="M335.353 214.176c-.196.266-.461.536-.66.802a49.533 49.533 0 01-7.126 18.081 37.672 37.672 0 01-10.622 1.474 41.117 41.117 0 01-18.804-4.62 43.239 43.239 0 01-7.719-5.358 23.25 23.25 0 01-8.248 1.608c-8.716.045-16.699-4.942-20.587-12.86a6.816 6.816 0 01.382-6.697 6.58 6.58 0 015.904-3.014 6.615 6.615 0 015.527 3.685 9.921 9.921 0 006.344 5.095 9.781 9.781 0 007.971-1.411 9.884 9.884 0 004.222-8.104 10.291 10.291 0 00-.989-4.486c-1.328-3.238.031-6.969 3.113-8.553 3.083-1.584 6.851-.483 8.632 2.525a23.863 23.863 0 012.441 10.514 23.396 23.396 0 01-4.157 13.059c1.056.736 2.111 1.474 3.167 2.076a27.625 27.625 0 0012.801 3.148 27.488 27.488 0 0018.408-6.964zm-80.693-26.294c8.547-5.976 14.426-15.137 16.357-25.489a6.765 6.765 0 00-2.114-6.417 6.54 6.54 0 00-6.548-1.274 6.69 6.69 0 00-4.298 5.173c-1.292 6.907-5.219 13.018-10.925 17.002a26.58 26.58 0 01-22.632 3.56 26.799 26.799 0 01-12.101-7.576 6.546 6.546 0 00-9.333-.439c-2.695 2.495-2.89 6.737-.431 9.473a39.674 39.674 0 0021.146 12.377c-3.696 5.274-9.684 8.397-16.058 8.382-3.645 0-6.598 2.999-6.598 6.699 0 3.7 2.953 6.697 6.598 6.697 13.657.056 25.912-8.509 30.738-21.476a39.452 39.452 0 0016.199-6.692zm61.492 73.573a51.023 51.023 0 01-15.438 5.09c-.35.055-.703.078-1.057.069-3.473.031-6.378-2.677-6.64-6.194-.262-3.517 2.21-6.639 5.651-7.135a37.727 37.727 0 0011.019-3.483 52.504 52.504 0 016.465 11.653zM169.15 214.712a34.578 34.578 0 00-.528 5.69 27.417 27.417 0 00.99 7.434 48.386 48.386 0 01-12.868 2.813 42.085 42.085 0 01-1.318-10.045c-11.622-1.286-20.433-11.239-20.453-23.106-.024-3.728 2.922-6.778 6.597-6.83a6.508 6.508 0 014.652 1.927 6.696 6.696 0 011.945 4.703v.2c.1 5.293 4.228 9.599 9.437 9.845a40.257 40.257 0 013.76-8.639 6.518 6.518 0 014.047-3.072 6.438 6.438 0 014.992.794c3.104 1.949 4.099 6.055 2.244 9.245a28.246 28.246 0 00-3.497 9.041zm98.113 39.176a54.784 54.784 0 01-12.207 2.477 23.383 23.383 0 01-5.147-13.057c.639.012 1.279-.011 1.915-.069a49.453 49.453 0 0011.545-2.142 6.526 6.526 0 016.578 1.377 6.756 6.756 0 011.98 6.512c-.56 2.375-2.345 4.252-4.664 4.902zm-67.259-115.377c0-3.7-2.953-6.698-6.595-6.698-16.756.019-30.334 13.801-30.351 30.806 0 3.7 2.955 6.699 6.596 6.699 3.643 0 6.599-2.999 6.599-6.699 0-4.617 1.807-9.045 5.026-12.311a17.025 17.025 0 0112.13-5.1c3.642 0 6.595-2.999 6.595-6.697zm-75.667 33.493c-1.2 0-2.378-.334-3.399-.965a27.491 27.491 0 01-11.632-14.592 27.454 27.454 0 01-1.51-9.021c0-15.177 12.098-27.495 27.051-27.539 8.567-.033 16.633 4.096 21.701 11.11a6.775 6.775 0 01.758 6.654c-.938 2.196-2.956 3.722-5.298 3.995a6.57 6.57 0 01-6.057-2.659 13.64 13.64 0 00-11.077-5.68c-6.246.037-11.706 4.283-13.364 10.396-1.658 6.113.891 12.595 6.238 15.871 2.542 1.552 3.751 4.634 2.956 7.535-.795 2.9-3.402 4.906-6.367 4.902v-.007zm141.585-63.702c-3.645 0-6.598-2.998-6.598-6.698 0-7.781-6.212-14.087-13.879-14.087s-13.88 6.306-13.88 14.087c0 3.7-2.953 6.698-6.596 6.698-3.641 0-6.598-2.998-6.598-6.698 0-15.177 12.122-27.481 27.074-27.481 14.952 0 27.075 12.304 27.075 27.481a6.746 6.746 0 01-1.932 4.735 6.549 6.549 0 01-4.666 1.963zm61.89 77.216c-3.063-.03-5.703-2.197-6.375-5.232-.672-3.034.808-6.137 3.563-7.492a14.168 14.168 0 006.25-5.866c3.355-5.808 2.187-13.212-2.785-17.666-4.927-4.434-12.401-4.688-17.616-.598-2.916 2.219-7.05 1.619-9.239-1.339-2.188-2.957-1.596-7.157 1.321-9.376a26.564 26.564 0 0116.033-5.519c12.747-.088 23.833 8.847 26.642 21.469 2.808 12.623-3.423 25.522-14.97 31.003a6.437 6.437 0 01-2.824.616z" fill="#e01a4f"/></g><path d="M222.548 56.768c-3.645 0-6.599-2.999-6.599-6.696v-6.699c0-3.698 2.954-6.697 6.599-6.697s6.598 2.999 6.598 6.697v6.699c0 3.697-2.955 6.696-6.598 6.696zm106.339 46.096a6.624 6.624 0 01-6.094-4.134 6.796 6.796 0 011.429-7.298l6.599-6.696a6.544 6.544 0 016.415-1.828 6.666 6.666 0 014.713 4.784 6.776 6.776 0 01-1.8 6.511l-6.598 6.699a6.551 6.551 0 01-4.664 1.962zm-212.679 0a6.551 6.551 0 01-4.665-1.962l-6.598-6.699a6.778 6.778 0 01-1.799-6.511 6.665 6.665 0 014.712-4.784 6.545 6.545 0 016.416 1.828l6.598 6.696a6.794 6.794 0 011.43 7.298 6.623 6.623 0 01-6.094 4.134z" fill="#1e273e" fill-rule="nonzero"/><path d="M116.204 106.73h.026a10.498 10.498 0 009.655-6.547 10.668 10.668 0 00-2.247-11.452l-6.586-6.684a10.416 10.416 0 00-10.181-2.877l-.024.006a10.536 10.536 0 00-7.446 7.557 10.65 10.65 0 002.81 10.204l6.578 6.678a10.41 10.41 0 007.415 3.115zm212.663 0h.026a10.423 10.423 0 007.418-3.121l6.577-6.677a10.647 10.647 0 002.806-10.2 10.539 10.539 0 00-7.473-7.562 10.412 10.412 0 00-10.192 2.892l-6.561 6.656-.012.013a10.666 10.666 0 00-2.245 11.452 10.495 10.495 0 009.656 6.547zm-212.659-3.866a6.551 6.551 0 01-4.665-1.962l-6.598-6.699a6.778 6.778 0 01-1.799-6.511 6.665 6.665 0 014.712-4.784 6.545 6.545 0 016.416 1.828l6.598 6.696a6.794 6.794 0 011.43 7.298 6.623 6.623 0 01-6.094 4.134zm212.679 0a6.624 6.624 0 01-6.094-4.134 6.796 6.796 0 011.429-7.298l6.599-6.696a6.544 6.544 0 016.415-1.828 6.666 6.666 0 014.713 4.784 6.776 6.776 0 01-1.8 6.511l-6.598 6.699a6.551 6.551 0 01-4.664 1.962zm-106.339-42.23c5.762 0 10.464-4.715 10.464-10.562v-6.699c0-5.849-4.7-10.563-10.464-10.563-5.765 0-10.465 4.714-10.465 10.563v6.699c0 5.847 4.7 10.562 10.465 10.562zm0-3.866c-3.645 0-6.599-2.999-6.599-6.696v-6.699c0-3.698 2.954-6.697 6.599-6.697s6.598 2.999 6.598 6.697v6.699c0 3.697-2.955 6.696-6.598 6.696z" fill="#61dafb"/><path d="M166.999 69.101a6.623 6.623 0 01-6.097-4.131l-7.574-18.566a6.788 6.788 0 01.775-6.733 6.552 6.552 0 016.169-2.597c2.369.333 4.373 1.94 5.241 4.2l7.584 18.564a6.81 6.81 0 01.003 5.133 6.642 6.642 0 01-3.574 3.628 6.604 6.604 0 01-2.527.502zm111.095 0a6.614 6.614 0 01-2.525-.507 6.659 6.659 0 01-3.572-3.627 6.805 6.805 0 01.003-5.129l7.581-18.564c.868-2.26 2.874-3.867 5.241-4.2a6.553 6.553 0 016.169 2.597 6.786 6.786 0 01.776 6.733l-7.574 18.565a6.622 6.622 0 01-6.099 4.132zm78.557 79.743c-3.154.008-5.876-2.249-6.49-5.391-.614-3.141 1.045-6.284 3.963-7.501l18.289-7.69a6.531 6.531 0 016.541.877 6.75 6.75 0 012.525 6.187c-.307 2.371-1.84 4.397-4.016 5.313l-18.285 7.688a6.508 6.508 0 01-2.527.517zm-268.207 0a6.535 6.535 0 01-2.528-.517l-18.283-7.688a6.702 6.702 0 01-4.019-5.313 6.76 6.76 0 012.526-6.187 6.539 6.539 0 016.541-.877l18.29 7.69c2.919 1.217 4.579 4.361 3.964 7.501-.616 3.14-3.336 5.399-6.491 5.391z" fill="#1e273e" fill-rule="nonzero"/><path d="M356.661 152.71a10.377 10.377 0 004.027-.824l18.273-7.683h.002c3.435-1.447 5.865-4.638 6.35-8.38a10.628 10.628 0 00-3.979-9.732 10.403 10.403 0 00-10.416-1.394l-18.293 7.691c-4.588 1.913-7.227 6.855-6.258 11.807.972 4.974 5.299 8.528 10.294 8.515zm-268.228 0c4.996.013 9.321-3.541 10.296-8.513.97-4.951-1.669-9.896-6.271-11.813l-18.279-7.686a10.41 10.41 0 00-10.418 1.393l-.008.007a10.628 10.628 0 00-3.973 9.723 10.574 10.574 0 006.339 8.376l18.299 7.694c1.263.535 2.632.815 4.015.819zm268.218-3.866c-3.154.008-5.876-2.249-6.49-5.391-.614-3.141 1.045-6.284 3.963-7.501l18.289-7.69a6.531 6.531 0 016.541.877 6.75 6.75 0 012.525 6.187c-.307 2.371-1.84 4.397-4.016 5.313l-18.285 7.688a6.508 6.508 0 01-2.527.517zm-268.207 0a6.535 6.535 0 01-2.528-.517l-18.283-7.688a6.702 6.702 0 01-4.019-5.313 6.76 6.76 0 012.526-6.187 6.539 6.539 0 016.541-.877l18.29 7.69c2.919 1.217 4.579 4.361 3.964 7.501-.616 3.14-3.336 5.399-6.491 5.391zm78.536-75.877h.019c1.374 0 2.734-.27 4.004-.795l.02-.008a10.508 10.508 0 005.658-5.736l.001-.002a10.675 10.675 0 00-.006-8.048l-7.57-18.532a10.48 10.48 0 00-8.295-6.6 10.41 10.41 0 00-9.81 4.118l-.004.005a10.657 10.657 0 00-1.228 10.544l7.553 18.517a10.49 10.49 0 009.658 6.537zm111.106 0h.026a10.494 10.494 0 009.665-6.548l7.556-18.521a10.66 10.66 0 00-1.236-10.53l-.003-.004a10.415 10.415 0 00-9.811-4.118c-3.74.526-6.921 3.05-8.301 6.617l-7.562 18.514-.001.002a10.674 10.674 0 00-.005 8.042 10.527 10.527 0 005.647 5.733l.023.009a10.47 10.47 0 004.002.804zm-111.087-3.866a6.623 6.623 0 01-6.097-4.131l-7.574-18.566a6.788 6.788 0 01.775-6.733 6.552 6.552 0 016.169-2.597c2.369.333 4.373 1.94 5.241 4.2l7.584 18.564a6.81 6.81 0 01.003 5.133 6.642 6.642 0 01-3.574 3.628 6.604 6.604 0 01-2.527.502zm111.095 0a6.614 6.614 0 01-2.525-.507 6.659 6.659 0 01-3.572-3.627 6.805 6.805 0 01.003-5.129l7.581-18.564c.868-2.26 2.874-3.867 5.241-4.2a6.553 6.553 0 016.169 2.597 6.786 6.786 0 01.776 6.733l-7.574 18.565a6.622 6.622 0 01-6.099 4.132z" fill="#61dafb"/></g></svg>
