<svg viewBox="0 0 449 449" xmlns="http://www.w3.org/2000/svg" fill-rule="evenodd" clip-rule="evenodd" stroke-linecap="round" stroke-linejoin="round" stroke-miterlimit="2"><path fill="none" d="M0 0h449v449H0z"/><clipPath id="a"><path d="M0 0h449v449H0z"/></clipPath><g clip-path="url(#a)"><path fill="none" d="M0 0h449v449H0z"/><path d="M224.444 71.347h-.006c-3.573.002-6.516-2.933-6.521-6.507l-.015-21.724c.001-3.572 2.94-6.512 6.512-6.514h.007c3.602-.003 6.533 2.911 6.536 6.506l.015 21.724c.002 3.596-2.926 6.513-6.528 6.515zm-73.355 23.851c-2.896 2.101-7.007 1.45-9.112-1.443l-12.804-17.56a6.519 6.519 0 01-1.247-3.826c.005-3.578 2.951-6.52 6.529-6.52 2.084 0 4.048.999 5.276 2.683l12.795 17.562a6.501 6.501 0 01-1.437 9.104zm-45.304 62.321c-1.107 3.402-4.812 5.294-8.217 4.195l-20.702-6.698c-3.401-1.103-5.294-4.808-4.193-8.211 1.111-3.402 4.821-5.291 8.225-4.186l20.693 6.699a6.53 6.53 0 014.514 6.185c0 .685-.108 1.365-.32 2.016zm237.433-.157a6.489 6.489 0 01-.32-2.012 6.537 6.537 0 014.502-6.196l20.693-6.727c3.401-1.103 7.108.779 8.223 4.176 1.121 3.421-.756 7.097-4.184 8.216l-20.682 6.725c-3.428 1.112-7.12-.763-8.232-4.184v.002zM297.83 95.101c-2.893-2.1-3.547-6.209-1.448-9.104l12.781-17.578a6.52 6.52 0 019.109-1.445 6.497 6.497 0 011.45 9.094l-12.773 17.576c-2.104 2.897-6.217 3.554-9.119 1.457z" fill="#df4759" fill-rule="nonzero"/><path d="M109.79 158.822v-.001a10.71 10.71 0 00.526-3.318v-.01a10.748 10.748 0 00-7.431-10.183l-20.69-6.697c-5.596-1.818-11.699 1.29-13.525 6.886a.03.03 0 00-.004.01c-1.812 5.599 1.304 11.699 6.902 13.513l20.707 6.7c5.599 1.808 11.695-1.304 13.515-6.9zm229.31-.528a10.684 10.684 0 01-.413-2.943v-.005a10.758 10.758 0 017.409-10.197l20.697-6.727c5.593-1.816 11.691 1.281 13.524 6.868l.001.002c1.845 5.631-1.236 11.687-6.878 13.53l-20.691 6.728c-5.479 1.777-11.366-1.091-13.371-6.418a3.665 3.665 0 01-.278-.838zm-233.315-.775c-1.107 3.402-4.812 5.294-8.217 4.195l-20.702-6.698c-3.401-1.103-5.294-4.808-4.193-8.211 1.111-3.402 4.821-5.291 8.225-4.186l20.693 6.699a6.53 6.53 0 014.514 6.185c0 .685-.108 1.365-.32 2.016zm239.964 3.207a6.53 6.53 0 005.701.818l20.682-6.725c3.428-1.119 5.305-4.795 4.184-8.216-1.115-3.397-4.822-5.279-8.223-4.176l-20.693 6.727a6.537 6.537 0 00-4.502 6.196c0 .683.108 1.362.32 2.012v-.002a6.452 6.452 0 001.774 2.767 44.533 44.533 0 01-1.773 1.445 4.21 4.21 0 002.53-.846zm-6.534-2.061l4 2.905c-.112-.138-4.209-5.189-4.209-4.21 0 .338.033.649.094.934l.115.371zm.015.048l.148.419c.101.214.219.41.351.589a4.156 4.156 0 01-.499-1.008l-.015-.048-.002-.002.017.05zM153.561 98.608a10.715 10.715 0 002.365-14.999l-12.791-17.557-.001-.001a10.748 10.748 0 00-8.679-4.413c-5.886 0-10.732 4.839-10.74 10.725v.01c.002 2.264.721 4.47 2.053 6.3l12.806 17.563c3.461 4.756 10.222 5.828 14.987 2.372zm141.795-.099l.007.005c4.772 3.449 11.533 2.368 14.994-2.394l12.772-17.577a10.703 10.703 0 00-2.394-14.986 10.723 10.723 0 00-6.299-2.041h-.005a10.743 10.743 0 00-8.676 4.43l-12.779 17.575-.004.004c-3.454 4.764-2.378 11.527 2.384 14.984zm-144.267-3.311c-2.896 2.101-7.007 1.45-9.112-1.443l-12.804-17.56a6.519 6.519 0 01-1.247-3.826c.005-3.578 2.951-6.52 6.529-6.52 2.084 0 4.048.999 5.276 2.683l12.795 17.562a6.501 6.501 0 01-1.437 9.104zm146.741-.097c-2.893-2.1-3.547-6.209-1.448-9.104l12.781-17.578a6.52 6.52 0 019.109-1.445 6.497 6.497 0 011.45 9.094l-12.773 17.576c-2.104 2.897-6.217 3.554-9.119 1.457zm-77.39-57.127a4.212 4.212 0 013.978-5.584h.003c5.927-.003 10.743 4.799 10.747 10.716l.015 21.723c.004 5.918-4.808 10.726-10.736 10.729h-.009a4.21 4.21 0 01-3.977-5.579 6.455 6.455 0 003.977 1.368h.006c3.602-.002 6.53-2.919 6.528-6.515l-.015-21.724c-.003-3.595-2.934-6.509-6.536-6.506h-.007a6.462 6.462 0 00-3.974 1.372zm3.996 37.584c-5.881.001-10.721-4.83-10.731-10.711l-.015-21.732c.002-5.881 4.84-10.721 10.721-10.725a4.212 4.212 0 00-3.977 5.589 6.51 6.51 0 00-2.532 5.137l.015 21.724a6.515 6.515 0 002.539 5.136 4.212 4.212 0 003.763 5.577l.217.005z" fill="#61dafb"/><path d="M217.322 88.128c-51.395 3.307-98.022 49.919-101.267 101.224-2.163 34.25 11.613 65.33 34.615 86.602 12.633 11.687 20.234 27.793 20.245 44.989l107.403-.064c-.012-16.635 6.615-32.804 18.997-43.941 22.065-19.871 35.932-48.62 35.91-80.627-.039-59.258-47.674-107.398-106.796-108.4-3.037-.052-6.075.021-9.107.217z" fill="#d9e2ef" fill-rule="nonzero"/><path d="M217.051 83.926c-53.393 3.435-101.828 51.861-105.199 105.16-2.247 35.578 12.064 67.863 35.958 89.96 11.769 10.888 18.883 25.879 18.894 41.899a4.211 4.211 0 004.214 4.209l107.402-.063a4.213 4.213 0 004.209-4.215c-.01-15.443 6.107-30.468 17.603-40.807l.001-.002c22.923-20.643 37.326-50.509 37.303-83.758-.04-61.558-49.52-111.568-110.935-112.609-3.152-.054-6.304.022-9.45.226zm.271 4.202c-51.395 3.307-98.022 49.919-101.267 101.224-2.163 34.25 11.613 65.33 34.615 86.602 12.633 11.687 20.234 27.793 20.245 44.989l107.403-.064c-.012-16.635 6.615-32.804 18.997-43.941 22.065-19.871 35.932-48.62 35.91-80.627-.039-59.258-47.674-107.398-106.796-108.4-3.037-.052-6.075.021-9.107.217z" fill="#869ab8"/><ellipse cx="224.551" cy="224.5" rx="67.456" ry="73.006" fill="#61dafb" fill-opacity=".06"/><path d="M234.337 322.997l-21.126.013c-1.93 0-3.606-1.281-3.978-3.043l-19.072-91.456c-.058-.236 0 .234 0 0l-.02-29.44c-.001-1.518.984-2.889 2.498-3.475 1.509-.571 3.248-.248 4.408.817 7.135 6.62 16.602 10.261 26.649 10.255 10.055-.007 19.517-3.661 26.645-10.291 1.157-1.07 2.897-1.395 4.406-.822 1.514.583 4.204 2.801 4.206 4.32l-1.684 28.591c0 .234.047-.236 0 0l-18.96 91.481c-.364 1.766-2.041 3.052-3.972 3.05zm-17.795-7.505l14.453-.009 15.814-87.204 2.354-21.297c-7.477 4.675-16.81 12.486-26.01 12.492-9.192.006-17.433-7.793-24.915-12.457l1.227 21.858 17.077 86.617z" fill="#2d3242" fill-rule="nonzero"/><path d="M185.994 228.272l-.019-29.198c-.003-3.191 1.98-6.134 5.162-7.364l.027-.01c2.981-1.129 6.41-.459 8.7 1.643l.017.015c6.374 5.914 14.837 9.149 23.812 9.143 8.983-.006 17.442-3.252 23.811-9.175l.007-.007c2.289-2.119 5.728-2.794 8.716-1.659a.122.122 0 01.017.007c1.604.617 4.104 2.42 5.446 4.252.988 1.347 1.428 2.769 1.429 3.952 0 .083-.002.166-.007.249l-1.666 28.295c.007.153.002.309-.014.466a3.651 3.651 0 01-.135.678l-18.907 91.23c-.748 3.622-4.096 6.379-8.058 6.374h.008l-21.129.014c-3.952 0-7.292-2.741-8.055-6.349l-19.015-91.185a3.436 3.436 0 01-.147-1.371zm72.959-28.397l-1.684 28.591-18.96 91.481c-.364 1.766-2.041 3.052-3.972 3.05l-21.126.013c-1.93 0-3.606-1.281-3.978-3.043l-19.072-91.456-.02-29.44c-.001-1.518.984-2.889 2.498-3.475 1.509-.571 3.248-.248 4.408.817 7.135 6.62 16.602 10.261 26.649 10.255 10.055-.007 19.517-3.661 26.645-10.291 1.157-1.07 2.897-1.395 4.406-.822 1.514.583 4.204 2.801 4.206 4.32zm-42.411 115.617l14.453-.009 15.814-87.204 2.354-21.297c-7.477 4.675-16.81 12.486-26.01 12.492-9.192.006-17.433-7.793-24.915-12.457l1.227 21.858 17.077 86.617zm3.425-4.169l-16.358-82.97-.738-13.138c2.501 1.747 5.081 3.489 7.744 4.901 4.003 2.123 8.192 3.528 12.541 3.525 4.298-.003 8.64-1.392 12.839-3.494 2.761-1.382 5.463-3.077 8.049-4.784l-1.36 12.314-15.169 83.641-7.548.005zm-33.752-81.458c.147.466.332.834.53 1.126.198.292.41.507.609.667a5.31 5.31 0 01-1.139-1.793zm75.054-.215a5.245 5.245 0 01-.956 1.733c.344-.328.722-.862.956-1.733zm-71.13-1.14l-.002-.066c.001-.003.003-.001.007.009l.017.058c0 .117-.015.058-.022-.001zm67.143-.102l.007-.008c.006.021-.02.242-.02.066l.013-.058zm-70.843-1.74c-.069.111-.16.274-.241.504-.081.23-.154.527-.186.906a4.89 4.89 0 01.427-1.41zm73.971-1.029c.055.062.109.127.162.195.116.149.713 1.087.849 2.236-.083-1.264-.566-2.004-1.011-2.431z" fill="#61dafb"/><path d="M288.78 134.568a48.385 48.385 0 00-19.586-20.219c-8.634-4.802-18.423-6.821-28.285-5.844a4.207 4.207 0 00-3.736 4.156c.012 2.294 1.903 4.174 4.197 4.174.111 0 .223-.004.334-.013l.029-.002.291-.028c16.384-1.507 31.796 6.946 39.322 21.594 1.058 2.028 3.587 2.84 5.627 1.806 2.029-1.055 2.842-3.585 1.807-5.624zm4.902 13.601a4.215 4.215 0 00-3.053-.949 4.217 4.217 0 00-2.831 1.49 4.198 4.198 0 00-.948 3.053 4.186 4.186 0 001.489 2.83 4.194 4.194 0 003.054.948 4.198 4.198 0 002.829-1.489 4.204 4.204 0 00.948-3.055 4.203 4.203 0 00-1.488-2.828z" fill="#2d3242" fill-rule="nonzero"/><path d="M241.869 120.985l.165-.009-.33.013.348-.015-.319.012.677-.045c14.679-1.349 28.487 6.225 35.23 19.349a.437.437 0 00.012.022c1.62 3.109 4.977 4.782 8.288 4.447a8.238 8.238 0 00-1.351 1.293 8.367 8.367 0 00-1.889 6.083l.001.014a8.357 8.357 0 002.978 5.65 8.36 8.36 0 006.091 1.892l.014-.002a8.363 8.363 0 005.636-2.966l.013-.015a8.377 8.377 0 001.888-6.081l-.003-.024a8.375 8.375 0 00-2.962-5.63l-.02-.017a8.382 8.382 0 00-6.074-1.886l-.113.013c3.104-2.405 4.18-6.788 2.346-10.401l-.009-.017a52.545 52.545 0 00-21.27-21.959c-9.377-5.214-20.007-7.408-30.717-6.347l-.042.004c-4.211.46-7.44 4.052-7.451 8.287v.035c.026 4.57 3.793 8.317 8.364 8.317.167 0 .333-.005.499-.017zm51.813 27.184a4.215 4.215 0 00-3.053-.949 4.217 4.217 0 00-2.831 1.49 4.198 4.198 0 00-.948 3.053 4.186 4.186 0 001.489 2.83 4.194 4.194 0 003.054.948 4.198 4.198 0 002.829-1.489 4.204 4.204 0 00.948-3.055 4.203 4.203 0 00-1.488-2.828zm-51.606-31.381c16.366-1.484 31.752 6.966 39.27 21.598 1.058 2.028 3.587 2.84 5.627 1.806 2.029-1.055 2.842-3.585 1.807-5.624a48.385 48.385 0 00-19.586-20.219c-8.634-4.802-18.423-6.821-28.285-5.844a4.207 4.207 0 00-3.736 4.156c.005.882.287 1.703.764 2.378a4.167 4.167 0 003.767 5.95l.004-.039c-.218-.311-1.762-2.559-2.354-4.637.6.333 1.288.522 2.016.522l.17-.007.185 3.983-.017.139.025.036-.008-.175c.039-.315.122-1.023.2-1.896l-.101-2.104.01-.001.095 2.068-.004.037.099 2.044-.095-2.081c.058-.64.113-1.366.147-2.09z" fill="#61dafb"/><g fill-rule="nonzero" stroke="#869ab8" stroke-width="2.85"><path d="M193.827 389.709c.008 12.542 14.241 22.701 31.791 22.689 17.54-.011 31.76-10.189 31.752-22.731l-63.543.042zm96.906-58.034c-.005-6.66-5.412-12.059-12.084-12.054l-108.067.072c-4.31.002-8.068 2.275-10.2 5.67l123.363 17.217c4.117-1.923 6.991-6.07 6.988-10.905z" fill="#2d3242"/><path d="M160.382 325.364a11.942 11.942 0 00-1.876 6.399c.005 6.66 5.421 12.05 12.092 12.046l108.067-.073a11.934 11.934 0 005.08-1.155l-123.363-17.217z" fill="#161c2d"/><path d="M290.747 354.628c-.004-6.658-5.411-12.048-12.083-12.044l-108.066.072c-4.312.003-8.069 2.275-10.2 5.662l123.362 17.226c4.117-1.924 6.991-6.071 6.987-10.916z" fill="#2d3242"/><path d="M160.398 348.319c-1.171 1.86-1.878 4.041-1.877 6.399.005 6.659 5.421 12.058 12.093 12.054l108.066-.073c1.819-.001 3.533-.438 5.08-1.163l-123.362-17.217z" fill="#161c2d"/><path d="M290.764 377.593c-.005-6.659-5.412-12.058-12.084-12.054l-108.067.073c-4.312.003-8.069 2.275-10.2 5.67L283.775 388.5c4.117-1.923 6.991-6.071 6.989-10.907z" fill="#2d3242"/><path d="M160.413 371.281c-1.17 1.861-1.878 4.043-1.877 6.4.005 6.658 5.421 12.049 12.093 12.044l108.067-.072a11.948 11.948 0 005.079-1.155l-123.362-17.217z" fill="#161c2d"/></g></g></svg>
