<svg viewBox="0 0 449 449" xmlns="http://www.w3.org/2000/svg" fill-rule="evenodd" clip-rule="evenodd" stroke-linecap="round" stroke-linejoin="round" stroke-miterlimit="2"><path fill="none" d="M0 0h449v449H0z"/><clipPath id="a"><path d="M0 0h449v449H0z"/></clipPath><g clip-path="url(#a)"><path fill="none" d="M0 0h449v449H0z"/><g fill-rule="nonzero"><path d="M291.989 166.938l-135.829.231-58.341 19.67 126.18 63.013 126.181-63.013-58.191-19.901z" fill="#d7b47f"/><path d="M291.989 166.938l-135.829.231-58.341 19.67 126.18 63.013 126.181-63.013-58.191-19.901z" fill="#161c2d" fill-opacity=".35"/><path d="M347.556 187.894l-123.557 61.958v157.675l123.678-59.799v-159.61l-.121-.224zm-247.219-.053l-.015.023v159.864l123.677 59.799V249.852l-123.662-62.011z" fill="#d7b47f"/><path d="M223.999 41.309c44.567 0 81.232 36.664 81.232 81.221s-36.665 81.222-81.222 81.222c-44.556 0-81.221-36.665-81.221-81.222a81.307 81.307 0 0123.791-57.432 81.013 81.013 0 0157.42-23.789z" fill="#d9e2ef"/><path d="M223.999 41.309c44.567 0 81.232 36.664 81.232 81.221s-36.665 81.222-81.222 81.222c-44.556 0-81.221-36.665-81.221-81.222a81.307 81.307 0 0123.791-57.432 81.013 81.013 0 0157.42-23.789z" fill="#3e4149" fill-opacity=".18"/></g><circle cx="223.999" cy="122.519" r="58.004" fill="#d9e2ef"/><path d="M350.18 186.839l-126.181 63.013 26.279 52.556 125.552-66.764-25.65-48.805z" fill="#d7b47f" fill-rule="nonzero"/><path d="M100.337 187.841l-.015.023v159.864l22.422 10.841V199.077l-22.407-11.236zm88.079-65.322c.003-27.605 19.709-51.572 46.794-56.91a57.953 57.953 0 00-11.211-1.095c-31.82 0-58.005 26.184-58.005 58.005 0 31.822 26.185 58.006 58.005 58.006 3.764 0 7.518-.367 11.211-1.094-27.084-5.341-46.787-29.307-46.794-56.912z" fill="#161c2d" fill-opacity=".16" fill-rule="nonzero"/><path d="M97.819 186.839l-25.651 48.805 125.553 66.764 26.278-52.556-126.18-63.013z" fill="#d7b47f" fill-rule="nonzero"/><path d="M97.819 186.839l-25.651 48.805 22.436 11.93 25.636-48.776-22.421-11.959z" fill="#161c2d" fill-opacity=".26" fill-rule="nonzero"/><path d="M70.067 239.603l25.859 13.707v94.417a4.508 4.508 0 002.54 4.036l124.075 59.8a4.514 4.514 0 003.917 0l124.074-59.799a4.499 4.499 0 002.54-4.036V253.31l25.859-13.707c2.152-1.169 2.989-3.872 1.87-6.046l-25.734-48.804a4.487 4.487 0 00-2.528-2.154l-53.106-18.109a84.908 84.908 0 009.285-24.704 86.093 86.093 0 001.748-17.264c.006-22.562-8.948-44.233-24.894-60.245a2.254 2.254 0 00-.639-.637c-33.236-32.867-87.635-32.867-120.873 0a2.317 2.317 0 00-.638.637c-23.165 23.278-30.604 57.523-20.314 87.778a84.985 84.985 0 006.585 14.648L96.48 182.589a4.478 4.478 0 00-2.545 2.162l-25.734 48.804c-1.121 2.173-.286 4.879 1.866 6.048zm149.934 160.774l-115.078-55.463v-86.835l91.098 48.289a4.545 4.545 0 002.112.524 4.517 4.517 0 004.024-2.478l17.844-35.568v131.531zm124.074-55.463l-115.077 55.463V268.846l17.844 35.568a4.517 4.517 0 006.135 1.954l91.098-48.289v86.835zm26.68-111.135L252.823 296.29l-22.288-44.432 118.614-59.044 21.606 40.965zM147.664 127.002h3.831c2.459-.024 4.475-2.033 4.499-4.484-.025-2.45-2.041-4.459-4.499-4.483h-3.831a76.337 76.337 0 0119.349-46.478l2.684 2.675a4.51 4.51 0 003.181 1.313c2.458-.025 4.473-2.034 4.498-4.485a4.478 4.478 0 00-1.317-3.17l-2.683-2.673a76.816 76.816 0 0146.625-19.289v3.819c.024 2.45 2.04 4.459 4.498 4.483 2.458-.024 4.474-2.033 4.499-4.483v-3.819a76.816 76.816 0 0146.624 19.289l-2.682 2.673a4.485 4.485 0 00-1.318 3.17c.024 2.452 2.04 4.461 4.499 4.485a4.514 4.514 0 003.182-1.313l2.682-2.675a76.326 76.326 0 0119.349 46.478h-3.831c-2.458.024-4.474 2.032-4.498 4.483.023 2.451 2.039 4.46 4.498 4.484h3.831a76.134 76.134 0 01-19.327 46.501l-2.707-2.698a4.514 4.514 0 00-3.181-1.314c-2.459.025-4.474 2.034-4.499 4.484a4.48 4.48 0 001.318 3.172l2.707 2.697a76.728 76.728 0 01-46.647 19.26v-3.811c-.025-2.451-2.041-4.459-4.499-4.483-2.458.023-4.474 2.032-4.498 4.483v3.818a76.815 76.815 0 01-46.625-19.288l2.683-2.674a4.476 4.476 0 001.317-3.17c-.023-2.451-2.039-4.461-4.498-4.485a4.502 4.502 0 00-3.181 1.314l-2.684 2.674a76.343 76.343 0 01-19.349-46.48zm7.043 45.481a86.333 86.333 0 008.718 10.28c.089.121.184.238.286.35.113.101.23.196.352.287 33.326 32.982 87.943 32.882 121.145-.226.026-.022.054-.039.079-.064.026-.024.04-.053.064-.075a86.46 86.46 0 009.114-10.761l44.993 15.34-114.959 57.226L109.6 187.647l45.107-15.164zm-54.861 20.329l118.615 59.044-22.287 44.433-117.929-62.51 21.601-40.967z" fill="#161c2d" fill-rule="nonzero" stroke="#61dafb" stroke-width="2.5"/><path d="M337.203 104.621c.025 2.451 2.034 4.46 4.484 4.485h23.202c2.45-.025 4.459-2.034 4.484-4.485-.024-2.45-2.033-4.46-4.484-4.484h-23.202c-2.45.024-4.46 2.033-4.484 4.484zm-4.204-23.327c.969 0 1.912-.314 2.686-.898l23.201-17.381a4.491 4.491 0 001.876-3.647c-.025-2.451-2.033-4.459-4.484-4.484a4.489 4.489 0 00-2.77.956l-23.202 17.383a4.483 4.483 0 00-1.792 3.587c.023 2.451 2.033 4.461 4.484 4.484h.001zm-2.693 54.728l23.202 17.382c.79.62 1.766.956 2.77.956 2.451-.025 4.459-2.034 4.484-4.484a4.491 4.491 0 00-1.876-3.647l-23.201-17.382a4.485 4.485 0 00-2.769-.957c-2.452.023-4.462 2.032-4.486 4.484a4.499 4.499 0 001.876 3.648zM83.11 109.106h23.201c2.451-.024 4.461-2.034 4.486-4.485-.024-2.451-2.035-4.461-4.486-4.484H83.11c-2.451.024-4.46 2.034-4.485 4.484.025 2.451 2.034 4.46 4.485 4.485zm29.204 19.738l-23.202 17.381a4.502 4.502 0 00-1.876 3.65c.024 2.451 2.034 4.46 4.486 4.484a4.483 4.483 0 002.768-.958l23.201-17.381a4.49 4.49 0 001.794-3.586c-.024-2.452-2.033-4.462-4.484-4.486-.97 0-1.915.315-2.69.897l.003-.001zM89.112 63.016l23.202 17.38c.775.583 1.72.898 2.69.898 2.451-.023 4.461-2.033 4.485-4.484a4.494 4.494 0 00-1.793-3.587L94.49 55.84a4.485 4.485 0 00-2.768-.958c-2.452.024-4.462 2.033-4.486 4.485 0 1.446.7 2.807 1.876 3.648v.001z" fill="#df4759" fill-rule="nonzero"/><path d="M328.823 138.035l23.167 17.355a6.987 6.987 0 004.288 1.47h.026c3.802-.039 6.92-3.156 6.958-6.959v-.028a6.998 6.998 0 00-2.906-5.667l-23.152-17.345a6.988 6.988 0 00-4.288-1.471h-.024c-3.805.036-6.925 3.155-6.962 6.96v.027a7.002 7.002 0 002.907 5.668l-.014-.01zm-218.008-11.191l.114-.084a6.973 6.973 0 014.072-1.312h.025c3.804.038 6.922 3.157 6.959 6.961v.026a6.99 6.99 0 01-2.793 5.584l-.002.002-23.162 17.351a6.982 6.982 0 01-4.306 1.487h-.025c-3.804-.037-6.923-3.155-6.961-6.959v-.028a7.004 7.004 0 012.893-5.66l23.098-17.304.073-.053.015-.012v.001l-.015.011-.082.067-.06.047-.02.019.08-.066.098-.075-.001-.003zm219.491 9.178l23.202 17.382c.79.62 1.766.956 2.77.956 2.451-.025 4.459-2.034 4.484-4.484a4.491 4.491 0 00-1.876-3.647l-23.201-17.382a4.485 4.485 0 00-2.769-.957c-2.452.023-4.462 2.032-4.486 4.484a4.499 4.499 0 001.876 3.648zm-218.252-6.984c-.187-1.297-.476-2.621-.858-2.43a2.567 2.567 0 00-.267.152l-.113.087.831 2.496-22.535 16.882a4.502 4.502 0 00-1.876 3.65c.024 2.451 2.034 4.46 4.486 4.484a4.483 4.483 0 002.768-.958l23.201-17.381a4.49 4.49 0 001.794-3.586c-.024-2.452-2.033-4.462-4.484-4.486-.97 0-1.915.315-2.69.897l.003-.001-.26.194zm222.649-24.441v.049c.038 3.803 3.156 6.922 6.96 6.959l.024.001h23.202l.026-.001c3.802-.038 6.919-3.156 6.958-6.958v-.051c-.038-3.803-3.156-6.921-6.959-6.959h-23.251c-3.804.037-6.923 3.156-6.96 6.96zm-251.619 7.008l.026.001h23.201l.024-.001c3.804-.036 6.924-3.155 6.961-6.959a.4.4 0 000-.049c-.036-3.805-3.157-6.924-6.961-6.96h-23.25c-3.804.038-6.922 3.156-6.96 6.959v.051c.039 3.802 3.156 6.92 6.959 6.958zm.026-2.499h23.201c2.451-.024 4.461-2.034 4.486-4.485-.024-2.451-2.035-4.461-4.486-4.484H83.11c-2.451.024-4.46 2.034-4.485 4.484.025 2.451 2.034 4.46 4.485 4.485zm254.093-4.485c.025 2.451 2.034 4.46 4.484 4.485h23.202c2.45-.025 4.459-2.034 4.484-4.485-.024-2.45-2.033-4.46-4.484-4.484h-23.202c-2.45.024-4.46 2.033-4.484 4.484zm-4.204-20.827a6.961 6.961 0 004.19-1.401l23.18-17.365a6.995 6.995 0 002.893-5.658v-.028c-.038-3.802-3.156-6.92-6.958-6.958h-.026a6.985 6.985 0 00-4.31 1.487c.022-.018-23.161 17.351-23.161 17.351l-.002.001a6.99 6.99 0 00-2.791 5.588v.023c.037 3.804 3.156 6.923 6.96 6.96h.025zM89.111 65.515l.001.001c-.54 0-1.066-.175-1.499-.499l23.202 17.38a6.976 6.976 0 004.189 1.397h.024c3.804-.037 6.923-3.156 6.96-6.96l.001-.024a6.992 6.992 0 00-2.792-5.586l-23.188-17.37a6.984 6.984 0 00-4.287-1.472h-.025c-3.804.037-6.923 3.156-6.961 6.96v.025a6.993 6.993 0 002.922 5.682 2.5 2.5 0 001.453.466zm2.001-1l21.202 15.881c.775.583 1.72.898 2.69.898 2.451-.023 4.461-2.033 4.485-4.484a4.494 4.494 0 00-1.793-3.587L94.49 55.84a4.485 4.485 0 00-2.768-.958c-2.452.024-4.462 2.033-4.486 4.485 0 1.446.7 2.807 1.876 3.648v.001l2 1.498a2.544 2.544 0 010 .001zm241.887 16.779c.969 0 1.912-.314 2.686-.898l23.201-17.381a4.491 4.491 0 001.876-3.647c-.025-2.451-2.033-4.459-4.484-4.484a4.489 4.489 0 00-2.77.956l-23.202 17.383a4.483 4.483 0 00-1.792 3.587c.023 2.451 2.033 4.461 4.484 4.484h.001zM90.123 65.301c-.312.14-.655.215-1.011.215l.002-.001c.355 0 .698-.076 1.009-.214zm-1.012.214c-.03-.037-.654-.807-1.272-1.496-.617-.688-1.227-1.295-1.227-1.004 0 2.245 2.439 2.494 2.499 2.5zm1.144-.277l-.058.029.097-.05-.039.021zm.169-.095l-.055.032.088-.053-.033.021zm.161-.108l-.052.036.079-.056-.027.02zm.152-.121l-.048.04.068-.057-.02.017zm.143-.131l-.045.042.057-.055-.012.013z" fill="#61dafb"/><path d="M223.999 185.01c34.281 0 62.491-28.21 62.491-62.492 0-34.281-28.21-62.491-62.491-62.491s-62.49 28.21-62.49 62.491c.038 34.267 28.223 62.454 62.49 62.492zm0-116.014c29.362 0 53.522 24.16 53.522 53.522 0 29.363-24.16 53.523-53.522 53.523-29.361 0-53.523-24.16-53.523-53.523.025-21.376 12.838-39.989 31.137-48.537a52.919 52.919 0 0122.386-4.985zm.093 75.099c-.031 0-.061-.003-.093-.003l-.093.003c-4.723-.077-8.575-3.967-8.606-8.691-.024-2.45-2.032-4.46-4.483-4.484-2.451.024-4.46 2.033-4.484 4.484.01 8.001 5.447 15.045 13.182 17.086v3.938c.024 2.451 2.034 4.46 4.484 4.484 2.451-.025 4.46-2.033 4.485-4.484v-3.938c7.725-2.052 13.15-9.091 13.166-17.084 0-9.687-7.964-17.66-17.651-17.668-4.771 0-8.699-3.926-8.699-8.699 0-4.772 3.928-8.699 8.699-8.699 4.772 0 8.698 3.927 8.698 8.699.025 2.45 2.034 4.46 4.484 4.484 2.452-.023 4.462-2.033 4.486-4.484-.008-8.003-5.446-15.053-13.183-17.093v-3.337c-.024-2.451-2.034-4.461-4.485-4.486-2.451.024-4.461 2.034-4.484 4.486v3.337c-7.728 2.05-13.156 9.09-13.173 17.086 0 3.483 1.041 6.889 2.988 9.779 3.181 4.739 8.586 7.885 14.669 7.888h.047c4.772 0 8.696 3.925 8.696 8.696 0 4.755-3.896 8.671-8.65 8.698v.002z" fill="#161c2d" fill-rule="nonzero" stroke="#869ab8" stroke-width="2.71"/></g></svg>
