<svg viewBox="0 0 792 113" height="25" width="180" xmlns="http://www.w3.org/2000/svg" fill-rule="evenodd" clip-rule="evenodd"><g fill-rule="nonzero"><path d="M238.464 73.822c.08 1.188-.041 2.167-.365 2.943a5.851 5.851 0 01-1.335 1.985 6.559 6.559 0 01-1.941 1.3c-.703.308-1.411.605-2.125.889a15.531 15.531 0 01-.939-.718 3.314 3.314 0 00-1.063-.582 44.547 44.547 0 00-1.517-2.908c-.485-.845-.708-1.813-.667-2.909 0-.045.031-.296.091-.752l.486-3.044.09-.788c-.995.107-1.973.337-2.912.685-1.01.364-1.994.799-2.943 1.3-.905.475-1.795.977-2.67 1.505-.829.501-1.508.935-2.033 1.3 0 .137-.081.468-.244.993-.16.524-.363 1.072-.606 1.642a11.384 11.384 0 01-.788 1.539c-.284.456-.567.685-.851.685.042.136.102.273.183.41.081.137.081.319 0 .547a6.063 6.063 0 00-1.517.719 8.38 8.38 0 01-1.396.752 4.006 4.006 0 01-1.578.308c-.566 0-1.233-.228-2.002-.684a.993.993 0 00-.303-.718 4.83 4.83 0 00-.638-.548l-.575-.411c-.162-.113-.244-.216-.244-.308-.203.047-.283-.113-.243-.478.04-.365.203-.456.487-.274-.447-.638-.719-1.197-.82-1.676-.101-.479-.334-1.084-.698-1.813.081-.092.152-.251.212-.48.06-.227.112-.433.152-.615a.9.9 0 01.182-.411c.081-.091.183-.068.303.069-.08-.411-.08-.753 0-1.027.082-.274.162-.525.244-.752.079-.223.139-.452.181-.685.041-.227-.02-.478-.181-.752a8.701 8.701 0 001.274-3.251c.202-1.163.323-2.223.364-3.182.283-.319.535-.775.758-1.368a11.5 11.5 0 00.516-1.813 7.737 7.737 0 00.152-1.779c-.02-.57-.092-1.038-.212-1.403.04-.227.262-.297.667-.205.242-1.505.414-3.205.516-5.098.093-1.809.265-3.612.515-5.406.243-1.71.647-3.215 1.214-4.515.567-1.301 1.476-2.156 2.731-2.567.243.959.555 1.803.94 2.533.38.722.806 1.419 1.275 2.087l1.395 2.017c.466.685.9 1.46 1.305 2.327-.04.867-.122 1.871-.242 3.011a77.027 77.027 0 01-.457 3.489l-.545 3.422a70.228 70.228 0 01-.516 2.806c.04.227.152.364.334.409.182.047.212.252.09.617a52.075 52.075 0 013.034-.754 75.372 75.372 0 003.156-.752 41.526 41.526 0 003.065-.923c.96-.328 1.885-.752 2.761-1.266.203-1.787.466-3.568.789-5.338.323-1.779.363-3.603.121-5.474.208-.191.374-.424.486-.683a.953.953 0 01.607-.548 10.076 10.076 0 01-.244-2.737c.036-.928.189-1.847.456-2.737.262-.866.647-1.608 1.152-2.223a3.44 3.44 0 011.852-1.199c.445.73.829 1.518 1.152 2.361l1.001 2.533c.331.813.695 1.612 1.093 2.394a6.716 6.716 0 001.486 1.95 82.8 82.8 0 01.273 4.106l.152 4.31a104.915 104.915 0 01-1.062 5.029c-.397 1.7-.67 3.427-.819 5.166a4.346 4.346 0 00-.667 1.233l-.486 1.402c-.157.466-.339.923-.546 1.369a4.723 4.723 0 01-.728 1.128c.162.548.192 1.061.09 1.541-.1.478.011 1.06.335 1.743zm40.084-31.885c.04.319.05.559.03.718l-.061.445a3.007 3.007 0 00-.03.445c0 .159.041.399.121.718-.849 1.551-1.83 2.612-2.943 3.183a13.54 13.54 0 01-3.611 1.231l-3.974.786c-1.355.274-2.701.867-4.035 1.779-.526-.227-1.001-.227-1.426 0-.425.229-1.042.297-1.85.206a1.99 1.99 0 01-.911.582 19.05 19.05 0 00-1.092.376c.161.41.232.833.212 1.266-.02.434.03.787.151 1.06 1.417.137 2.984.115 4.704-.067a64.015 64.015 0 015.066-.343c.041.228.021.377-.06.444-.082.069-.102.195-.062.377.285.228.567.513.85.856.278.335.561.666.85.991.283.319.577.582.88.788.304.204.657.285 1.061.238.162.366.274.764.335 1.198.06.433.01.878-.152 1.334l-1.941 1.54a15.9 15.9 0 01-2.034 1.402c-.71.412-1.463.745-2.245.993-.79.251-1.669.354-2.64.308h-.455c-.1 0-.232-.068-.394-.205-.323.227-.779.296-1.366.205-.587-.091-1.041-.023-1.364.206-.446-.229-.981-.332-1.608-.308-.627.022-1.184-.058-1.67-.24a24.153 24.153 0 00-1.759 3.079 28.772 28.772 0 00-1.396 3.489c1.376.229 2.518.32 3.429.274a29.034 29.034 0 002.578-.239l2.489-.343c.849-.113 1.92-.148 3.216-.102.809-.502 1.769-.833 2.882-.992a13.69 13.69 0 003.064-.787c.324.137.607.376.849.718l.699.958c.222.297.455.559.697.787.242.228.547.319.911.274.162.182.273.399.333.65.058.238.109.477.152.718.04.228.112.422.212.582.102.159.274.217.517.172-.607 1.505-1.306 2.657-2.095 3.454a7.96 7.96 0 01-2.7 1.813c-1.011.411-2.134.73-3.368.959a150.37 150.37 0 00-4.095.82c-.365.092-.668.081-.91-.034a1.978 1.978 0 00-.851-.17c-.929.228-2.042.433-3.336.615a22.732 22.732 0 01-3.945.206 16.158 16.158 0 01-3.823-.581c-1.214-.343-2.204-.948-2.973-1.815a2.277 2.277 0 01-.637-1.128c-.101-.433-.374-.765-.819-.992a21.006 21.006 0 00-.244-1.985l-.363-2.292c-.12-.783-.211-1.57-.273-2.36a8.025 8.025 0 01.091-2.122 4.552 4.552 0 01.758-1.847 2.253 2.253 0 00.394-1.779.447.447 0 00.365-.377c.04-.205.202-.285.486-.239.23-.786.493-1.562.787-2.326.277-.714.571-1.421.881-2.121l.91-2.088c.304-.706.597-1.494.88-2.361a5.701 5.701 0 01-1.245-1.95 11.78 11.78 0 01-.575-2.12 35.136 35.136 0 01-.304-2.19 15.794 15.794 0 00-.425-2.293 5.601 5.601 0 011.487-1.676 8.447 8.447 0 011.912-1.06 14.869 14.869 0 012.245-.685 90.011 90.011 0 002.549-.616 43.82 43.82 0 014.338-1.368 47.234 47.234 0 013.763-.787l3.853-.582a62.11 62.11 0 004.55-.82c.365.41.709.615 1.032.615.162-.411.354-.536.576-.377.223.161.314.036.274-.375a6.314 6.314 0 001.547 1.95 9.76 9.76 0 002.094 1.334zm26.275 33.666a44.177 44.177 0 00-.607-1.438 15.61 15.61 0 00-.607-1.232l-1.275-2.942a26.649 26.649 0 01-1.031-3.011l.636-3.899c.708-4.212 1.497-8.41 2.367-12.591.465-2.235.942-4.151 1.426-5.748l1.488-4.515a36.25 36.25 0 011.82-4.414c.667-1.346 1.385-2.497 2.154-3.456.769-.957 1.598-1.527 2.489-1.71.242.365.505.65.787.855.284.206.547.354.789.444.689 1.096 1.356 2.019 2.003 2.772a18.497 18.497 0 002.306 2.224 48.575 48.575 0 01-1.063 4.55l-1.456 5.029-1.486 4.892a77.628 77.628 0 00-1.153 4.072 55.573 55.573 0 00-.727 3.147 85.682 85.682 0 00-.639 3.627 131.155 131.155 0 00-.637 4.654c.567-.184 1.204-.548 1.912-1.096a22.75 22.75 0 001.972-1.71 33.253 33.253 0 002.124-2.19 45.187 45.187 0 002.367-2.874 29.046 29.046 0 001.79-2.702 79.797 79.797 0 001.699-3.08l2.093-4.002 2.276-4.243a95.065 95.065 0 014.763-8.108c.769-1.164 1.476-2.064 2.124-2.703.445.502.96 1.027 1.547 1.573.587.548 1.224.936 1.912 1.164.283.502.555.947.819 1.334l.759 1.129.879 1.368c.263.411.496.867.698 1.37-.04.364-.111.843-.213 1.436l-.332 1.951-.395 2.154-.395 2.122-.91 4.653a48.914 48.914 0 00-.425 2.463c-.08.593-.132 1.094-.152 1.505-.02.411-.03.981-.03 1.711 0 .547.04 1.095.122 1.642.08.502.172 1.015.272 1.539.101.522.296 1.021.577 1.472l2.912-2.532c.809-.685 1.588-1.653 2.337-2.908a38.813 38.813 0 002.185-4.311 89.479 89.479 0 002.093-5.269l2.063-5.849 1.487-4.346c.484-1.38 1-2.749 1.547-4.106a68.998 68.998 0 011.548-3.558c.506-1.071 1.001-1.972 1.486-2.702 1.093.775 2.034 1.55 2.822 2.327a14.129 14.129 0 012.064 2.565c.586.935 1.051 2.008 1.395 3.216.343 1.209.596 2.635.758 4.277a92.642 92.642 0 00-2.488 5.885l-5.309 13.993a74.09 74.09 0 01-3.428 7.492 43.439 43.439 0 01-4.218 6.535 23.676 23.676 0 01-5.371 5.029 6.274 6.274 0 00-1.456-.205c-.444 0-.819.068-1.122.205-.302.135-.579.32-.82.547-1.658-.866-2.993-2.156-4.004-3.867a64.16 64.16 0 01-2.974-5.712 11.94 11.94 0 00-.394-.925l-.455-.923-1.031-2.121-.607-1.3-.851.889-1.274 1.301-.728.82a129.048 129.048 0 01-3.822 3.867 37.524 37.524 0 01-4.067 3.421 20.897 20.897 0 01-4.52 2.497c-1.598.639-3.307.98-5.127 1.027l-1.638-.89c-.931-.502-1.7-.981-2.307-1.437-.607-.456-1.314-1.163-2.123-2.12zm88.533-.89a11.613 11.613 0 01-1.061 2.361c-.45.777-1.001 1.49-1.64 2.12a9.03 9.03 0 01-2.093 1.539 5.721 5.721 0 01-2.427.685c-.525-.137-.88-.285-1.062-.445a5.883 5.883 0 00-.576-.444l-.607-.411-.729-.342.244-.889c.08-.366.06-.651-.062-.856-.12-.205-.364-.49-.727-.856l-.364-.41a2.644 2.644 0 01-.305-.41l-1.031-1.3 1.638-.479c1.012-.32 1.69-.73 2.033-1.232.344-.502.476-1.346.395-2.532-.81-.182-1.487-.205-2.033-.068-.561.142-1.118.301-1.669.479-.729.228-1.468.422-2.215.582-.808.165-1.632.245-2.457.238-.324 0-.627-.011-.911-.034a14.606 14.606 0 01-.909-.103l-.607-.135c-.081-.503-.162-.788-.243-.856a2.384 2.384 0 01-.242-.24 5.618 5.618 0 01-.638-.923c-.223-.388-.273-.878-.151-1.471a3.57 3.57 0 01-.364-1.232 8.35 8.35 0 00-.547 1.71l-.242.685-.607.137c-.081.045-.142.148-.182.308a1.64 1.64 0 00-.061.375l-.304 1.164-.485.478a13.36 13.36 0 01-.304 1.233c-.114.39-.235.777-.363 1.163a21.67 21.67 0 00-.516 1.745 5.287 5.287 0 00-.152 1.676l-.243.753c-.202.274-.424.49-.667.649-.237.158-.48.306-.728.445a1.032 1.032 0 01-.334.24 7.048 7.048 0 00-.333.171l-.183.752-.728.137-.94.206a2.631 2.631 0 01-.638.068l-.607-.068a27.565 27.565 0 01-1.031-.992 5.985 5.985 0 00-.85-.719c-.364-.547-.566-.957-.607-1.231l-.12-.753a3.907 3.907 0 01-.152-.684.74.74 0 00-.152-.411l-.789-.82.667-.617.062-1.162a106.436 106.436 0 012.579-6.707l4.702-10.947a1.72 1.72 0 01-.06-.479c0-.183.04-.388.121-.617.444-.775.809-1.471 1.093-2.087l.849-1.882c.316-.76.65-1.512 1.001-2.257.343-.73.779-1.483 1.304-2.258l.971-.478c.143-.055.284-.112.425-.173.162-.067.344-.101.546-.101l.91.137c1.133-.593 2.124-1.426 2.974-2.498.849-1.073 1.718-2.361 2.609-3.867l.607-.957.789.548c.202.136.485.261.849.375l1.153.377c.728.182 1.416.387 2.063.616.647.227 1.174.57 1.578 1.026.243.73.385 1.278.425 1.642.04.368.101.733.182 1.094l.333 2.327c.102.776.172 1.642.212 2.601.199.757.371 1.522.517 2.291l.394 2.293.607 3.182c.202 1.027.465 1.995.789 2.907.323 0 .525.023.607.07.204-.092.417-.161.637-.206.222-.046.475-.091.759-.137l.667-.068.242.684c.04.228.243.457.607.684.526.046.911.171 1.153.377.238.2.461.417.667.649.162.182.324.319.487.411l.909.411-.485 1.026c-.404.821-.981 1.608-1.73 2.361a10.7 10.7 0 01-2.517 1.882c.038.261.069.523.09.786.02.252.072.513.152.787.122.776.222 1.574.303 2.394a13.23 13.23 0 010 2.533l-.121.274zm-17.537-11.838a83.234 83.234 0 003.307-.308 31.444 31.444 0 003.308-.582l-.911-4.276a151.048 151.048 0 00-1.032-4.414l-.364.685a28.645 28.645 0 00-2.335 3.216 39.618 39.618 0 00-1.913 3.352l-.727 1.232c-.238.402-.461.813-.668 1.232.23-.044.464-.067.698-.068.223 0 .435-.023.637-.069zm37.562 16.832a79.409 79.409 0 01-3.701 1.232 13.558 13.558 0 01-4.005.616c-2.023 0-3.621-.57-4.795-1.711-.202-.501-.384-.843-.546-1.026a5.082 5.082 0 01-.333-.582c-.102-.205-.172-.49-.212-.855a7.666 7.666 0 01-1.154-2.223 12.715 12.715 0 01-.576-2.601 15.149 15.149 0 01-.061-2.702c.061-.913.192-1.78.395-2.601.08-.182.13-.365.152-.548.023-.206.054-.411.09-.615.162-.73.334-1.437.517-2.121a6.176 6.176 0 01.757-1.779c-.162-.411-.162-.867 0-1.369.162-.501.344-.957.547-1.368l1.426-4.414 1.183-3.592 1.942-6.09a76.947 76.947 0 001.639-6.5c.322-.228.565-.388.727-.479a7.15 7.15 0 01.607-.205c.728.41 1.578.809 2.549 1.197.971.387 1.78.582 2.427.582.323.227.525.398.607.513.08.114.162.217.242.307.445.593.83 1.198 1.154 1.814.323.616.424 1.425.303 2.429-.243.411-.425.616-.546.616a20.58 20.58 0 01-.638 2.326l-.697 1.916a42.143 42.143 0 00-.789 2.053c-.243.685-.445 1.528-.607 2.532-.14.188-.253.395-.334.615-.149.45-.31.895-.485 1.334-.1.249-.255.472-.455.651-.122 1.186-.314 2.144-.577 2.873l-.819 2.19a60.148 60.148 0 00-1.305 3.969c-.384 1.323-.617 2.828-.697 4.516.202-.091.394-.137.576-.137h.516c.364 0 .788.068 1.275.205a9.333 9.333 0 013.973-1.3 68.736 68.736 0 014.278-.274h1.7c.567 0 1.092-.045 1.578-.136.364.228.597.353.697.376.102.023.253.034.455.034.284 0 .526.023.729.069.485.501.951.867 1.395 1.094.453.232.919.438 1.396.616.441.181.875.375 1.304.581.425.207.84.492 1.244.856l.426 2.942c.283.411.405.685.363.822 0 .364-.08.638-.242.82l.122.753c-.607.137-1.022.296-1.244.48-.23.187-.443.393-.639.615-.23.037-.463.06-.697.068h-.394c-.567 0-1.254.115-2.063.343a9.555 9.555 0 00-3.399-.616c-.466.001-.931.024-1.395.069l-1.456.136c-.487.091-.982.16-1.487.205-.506.046-1.022.069-1.547.069l-1.396.41zm53.703-1.71c-1.943.091-3.651.045-5.129-.137a13.803 13.803 0 01-4.338-1.3c-.08-.045-.162-.16-.242-.342a1.687 1.687 0 00-.243-.411 1.552 1.552 0 00-.88-.17 2.105 2.105 0 01-.88-.104c-.324-.182-.829-.536-1.517-1.06l-1.881-1.471a47.86 47.86 0 01-2.063-1.916 13.015 13.015 0 01-1.7-2.053.651.651 0 00-.485-.308 1.406 1.406 0 01-.546-.171 11.248 11.248 0 00-2.973 3.08 69.86 69.86 0 00-2.306 3.763 43.36 43.36 0 01-2.306 3.626 7.844 7.844 0 01-3.095 2.6c-.363 0-.687-.068-.97-.205a3.733 3.733 0 01-.789-.512c-.237-.201-.48-.395-.729-.582a2.606 2.606 0 00-.789-.411 4.032 4.032 0 00-.272-1.505c-.174-.437-.357-.87-.547-1.3a6.025 6.025 0 01-.394-1.198c-.081-.388 0-.765.242-1.129-.242-.274-.607-.57-1.092-.89.243-.273.355-.525.334-.752a2.77 2.77 0 00-.151-.685 6.132 6.132 0 01-.213-.752 1.104 1.104 0 01.152-.821c.202 0 .445-.046.728-.137-.243-.365-.355-.581-.333-.65.02-.068-.032-.171-.152-.308-.082-.274-.041-.445.12-.513.162-.069.324-.148.486-.24.162-2.235.505-4.31 1.032-6.226a71.184 71.184 0 011.76-5.543l1.911-5.406a43.395 43.395 0 001.548-5.883 5.785 5.785 0 001.061-1.781c.266-.691.549-1.375.849-2.051.307-.691.652-1.365 1.032-2.019a4.458 4.458 0 011.608-1.608 3.141 3.141 0 011.518.512c.444.297.991.423 1.638.377.119.224.23.453.333.685.109.24.241.469.394.683l.911-.204c.445.41.839.923 1.184 1.539.341.606.576 1.266.697 1.951a4.503 4.503 0 01-.06 1.95c-.162.615-.547 1.105-1.154 1.471.041.227.052.398.031.512a1.33 1.33 0 01-.091.308.679.679 0 00-.06.274c0 .092.06.229.182.411-.809.684-1.416 1.642-1.821 2.873-.404 1.232-.628 2.327-.668 3.285a19.998 19.998 0 011.608-1.608c.593-.53 1.2-1.043 1.821-1.54l1.82-1.436a22.478 22.478 0 001.608-1.369c1.336-1.369 2.62-2.474 3.853-3.318a93.957 93.957 0 003.915-2.84c.323-.092.575-.103.758-.035.182.069.374.148.576.24 0-.274-.07-.433-.212-.479-.142-.046-.192-.228-.152-.547a7.838 7.838 0 001.578-.65c.445-.251.931-.491 1.456-.718.362.407.706.829 1.033 1.265.323.433.767.696 1.334.787.202.502.445.878.729 1.129.277.246.56.486.849.718.29.237.546.513.759.822.222.319.353.82.394 1.505l-.516 1.026a9.135 9.135 0 00-.515 1.301 24.318 24.318 0 01-2.459 2.189 66.894 66.894 0 01-2.518 1.847l-2.609 1.779a25.571 25.571 0 00-2.73 2.122 3.595 3.595 0 01-.759.854c-.31.256-.623.508-.941.754-.317.245-.621.508-.909.787-.283.272-.51.597-.669.957a1.006 1.006 0 01-.364.069 1.025 1.025 0 00-.363.068 1.57 1.57 0 01-.577.752 1.275 1.275 0 00-.516.753c.607 1.46 1.396 2.578 2.367 3.353a9.188 9.188 0 003.276 1.677c1.286.352 2.612.536 3.945.547l4.43.035c.161-.047.232-.148.212-.309-.02-.16.071-.216.273-.171.971.366 1.72.878 2.245 1.54a15.177 15.177 0 001.881 1.95c-.081 1.734-.546 3.171-1.395 4.311-.85 1.14-1.982 2.052-3.398 2.737zm30.887-31.407c-.082-.593-.183-.958-.304-1.095.276-.792.489-1.604.636-2.429.137-.76.249-1.525.335-2.293.08-.638.172-1.231.272-1.779.098-.532.23-1.057.395-1.573.688-.183 1.203-.513 1.548-.992.344-.479.616-.901.819-1.266.728-.046 1.203.069 1.426.343.222.272.474.728.759 1.368.202.501.484 1.037.849 1.608.364.57.909 1.015 1.638 1.334.117.486.259.966.425 1.437.162.456.344.935.546 1.436.364.959.707 1.95 1.032 2.976.324 1.027.505 1.997.546 2.909-.486 1.049-.86 2.259-1.123 3.627a28.371 28.371 0 00-.485 4.14 29.057 29.057 0 00.09 4.002c.122 1.278.325 2.349.607 3.216l.365 1.095 1.335-.137a28.978 28.978 0 003.944-1.402 18.553 18.553 0 003.276-1.882 23.67 23.67 0 002.913-2.498 39.391 39.391 0 002.913-3.318 24.547 24.547 0 002.609-4.346 33.66 33.66 0 001.912-5.029c.505-1.733.9-3.467 1.182-5.199.284-1.734.467-3.354.547-4.859.769-.411 1.193-1.073 1.274-1.985l-.181-.889a1.13 1.13 0 01-.152-.65c.019-.201.07-.397.152-.581.323-1.049 1.011-1.825 2.063-2.327.721.541 1.4 1.136 2.033 1.779.603.613 1.18 1.252 1.728 1.916.082 1.232.244 2.293.486 3.182.243.889.506 1.745.789 2.565.273.746.526 1.5.758 2.259.224.729.374 1.618.456 2.669a28.9 28.9 0 00-.881 3.865l-.515 3.798-.122.753-2.154 4.344a72.98 72.98 0 00-1.729 3.866c-.253.29-.468.612-.637.959-.18.36-.352.725-.516 1.094a7.314 7.314 0 00-.333.684c-.142.32-.274.548-.395.685l-1.457-.617-.363 2.122-.971.274-.729.957c-.93 1.826-1.911 3.354-2.942 4.585a20.811 20.811 0 01-3.459 3.285 32.254 32.254 0 01-4.309 2.702 119.328 119.328 0 01-5.491 2.703 16.534 16.534 0 00-2.093-.239 43.436 43.436 0 01-1.731-.103c-.566 0-1.111-.023-1.638-.069a38.808 38.808 0 01-1.82-.205c-.162-.411-.385-.707-.667-.889-.284-.183-.547-.274-.789-.274a4.378 4.378 0 01-1.821-1.916 78.108 78.108 0 01-1.275-2.736 54.677 54.677 0 00-.637-1.644 9.425 9.425 0 00-.819-1.572l1.214-.411-1.578-2.053a7.292 7.292 0 00-.395-.411 2.872 2.872 0 01-.393-.479v-1.3a209.526 209.526 0 01-.213-10.366c.021-3.171.394-5.965 1.123-8.382l.122-.342zm61.712-8.553c1.698.228 3.216.616 4.551 1.163 1.334.547 2.468 1.277 3.397 2.189a41.79 41.79 0 011.852 3.696 20.68 20.68 0 011.334 4.14c.304 1.436.445 2.907.425 4.413-.02 1.505-.313 3.033-.879 4.584a14.55 14.55 0 01-4.278 4.003 25.932 25.932 0 01-5.431 2.498 61.81 61.81 0 01-6.038 1.642l-6.098 1.368c.04 1.049.05 2.156.03 3.319a25.486 25.486 0 01-.304 3.489 20.844 20.844 0 01-.819 3.387 12.54 12.54 0 01-1.457 3.011 7.785 7.785 0 00-2.123.308c-.728.205-1.375.376-1.942.513a19.4 19.4 0 01-.759-.513c-.222-.159-.535-.262-.939-.308.08-.456-.021-.923-.305-1.403l-.849-1.471a5.323 5.323 0 01-.577-1.436c-.1-.457.092-.891.577-1.3-.283-.319-.424-.73-.424-1.233.282-.546.536-1.299.758-2.257.219-.939.401-1.887.546-2.84.138-.848.169-1.71.091-2.566-.081-.776-.486-1.346-1.213-1.71.04-.092.12-.137.242-.137.125-.001.248-.024.364-.069-.324-.274-.516-.661-.576-1.164a2.947 2.947 0 00-.455-1.299c.073-.202.133-.408.182-.617.04-.182.181-.25.425-.204a6.836 6.836 0 01.03-2.327c.138-.716.351-1.416.637-2.087.291-.676.636-1.328 1.031-1.95.4-.629.784-1.268 1.154-1.916.282-.045.454 0 .515.137s.192.115.394-.069c.527-.456.891-.934 1.093-1.436.203-.502.303-1.073.303-1.711.294-.986.638-1.957 1.032-2.908.404-.98.85-1.881 1.335-2.703a12.934 12.934 0 011.608-2.189c.587-.638 1.204-1.119 1.851-1.438.548-.5 1.16-.925 1.82-1.265a10.017 10.017 0 012.367-.889c.845-.205 1.71-.32 2.579-.343.81-.03 1.62.074 2.396.308.202.091.314.046.334-.136.02-.183.091-.274.213-.274zm-2.488 16.354a16.504 16.504 0 013.246-1.198c1.154-.296 2.114-.855 2.882-1.677-.485-.501-1.193-.946-2.123-1.334a10.032 10.032 0 00-3.034-.719 9.663 9.663 0 00-3.308.308 6.24 6.24 0 00-2.882 1.677c-.19.654-.392 1.304-.607 1.95a28.954 28.954 0 01-.667 1.745.962.962 0 00.395.513.966.966 0 01.394.514c.93-.548 1.871-.856 2.822-.925.95-.068 1.911-.353 2.882-.854zm38.593 23.743a3.261 3.261 0 01-.698-1.3c-.141-.501-.475-.912-1.002-1.231a58.777 58.777 0 00-.333-2.361l-.424-2.738a32.574 32.574 0 01-.304-2.805 11.646 11.646 0 01.092-2.565c.078-.404.21-.796.394-1.164l.545-1.061c.181-.337.323-.693.425-1.061.102-.364.112-.73.03-1.094.244-.045.394-.193.456-.445.06-.251.253-.33.577-.24.282-1.003.585-1.938.909-2.805.324-.867.667-1.71 1.032-2.532l1.123-2.497c.384-.844.737-1.79 1.061-2.839-.687-.73-1.183-1.518-1.486-2.361a16.507 16.507 0 01-.698-2.567 28.505 28.505 0 01-.365-2.634 16.108 16.108 0 00-.485-2.703 6.978 6.978 0 011.76-2.019c.699-.53 1.464-.967 2.276-1.299a15.32 15.32 0 012.7-.821c1.036-.22 2.068-.46 3.095-.719a60.807 60.807 0 015.218-1.608 59.743 59.743 0 014.491-.957c1.512-.26 3.029-.489 4.55-.685a83.312 83.312 0 005.462-.923c.04.137.112.204.212.204h.395c.121.319.344.479.668.479 0-.136-.01-.261-.031-.376a1.858 1.858 0 01-.031-.307c.082 0 .193.022.334.067.142.047.263.092.365.137a.241.241 0 00.273-.033c.08-.068.101-.217.06-.445.486.957 1.113 1.745 1.882 2.36a13.652 13.652 0 002.548 1.608c.04.411.051.708.03.89a3.88 3.88 0 01-.091.513 2.288 2.288 0 00-.06.547c0 .206.04.49.121.856-.647 1.231-1.386 2.19-2.215 2.873a9.66 9.66 0 01-2.64 1.574c-.93.366-1.911.638-2.942.822l-3.156.582c-1.1.212-2.185.497-3.246.854-1.092.365-2.165.913-3.217 1.643-.324-.137-.617-.195-.879-.172a3.755 3.755 0 00-.819.172c-.311.099-.625.19-.941.273-.344.092-.759.092-1.244 0-.315.314-.7.549-1.123.684l-1.304.411c.202.501.293 1.004.272 1.505-.02.502.031.935.152 1.301 1.699.182 3.581.171 5.644-.034 2.018-.203 4.042-.351 6.068-.445.04.227.02.387-.06.479-.082.091-.122.251-.122.478a5.62 5.62 0 011.031 1.027c.324.411.657.81 1.002 1.197.344.388.698.707 1.061.959.364.25.789.353 1.275.307.203.459.346.942.425 1.438.08.501.02 1.026-.182 1.573a68.007 68.007 0 00-2.367 1.814c-.761.61-1.562 1.17-2.397 1.676-.851.511-1.756.924-2.7 1.231a8.93 8.93 0 01-3.156.411h-.515c-.142 0-.314-.092-.516-.274-.405.228-.94.308-1.608.24-.668-.069-1.224.011-1.669.238-.567-.227-1.223-.341-1.972-.341-.748 0-1.406-.115-1.973-.342a48.49 48.49 0 00-2.063 3.729 31.692 31.692 0 00-1.698 4.139c1.658.274 3.034.389 4.126.343a31.73 31.73 0 003.095-.274l3.003-.41c1.032-.137 2.296-.183 3.793-.137 1.011-.548 2.174-.924 3.488-1.13a19.621 19.621 0 003.673-.923c.404.137.747.399 1.031.786.28.384.553.771.819 1.164.263.388.535.718.819.992.283.274.647.365 1.092.274.202.228.334.501.395.82l.182.89c.06.274.152.491.272.651.122.159.345.216.669.171-.769 1.779-1.628 3.147-2.579 4.105a10.43 10.43 0 01-3.217 2.224c-1.193.525-2.527.912-4.005 1.163l-4.945.924c-.444.091-.819.08-1.123-.034a2.625 2.625 0 00-.94-.171 78.441 78.441 0 01-4.035.683 26.822 26.822 0 01-4.704.274 18.73 18.73 0 01-4.55-.683c-1.456-.411-2.67-1.141-3.641-2.19zm44.055 0c-.243 1.55-.931 2.623-2.063 3.216-.527.045-.921.023-1.184-.069a7.609 7.609 0 01-.819-.342 3.522 3.522 0 00-.971-.343l-.667-.546a5.1 5.1 0 00-.304-.685 6.243 6.243 0 00-.425-.684 11.491 11.491 0 01-.971-1.71c-.242-1.323-.283-2.43-.12-3.32.16-.887.362-1.766.606-2.634l.485-1.71c-1.051-.638-1.84-1.552-2.367-2.738-.525-1.185-.829-2.326-.909-3.42.12-.867.343-1.563.667-2.087a4.55 4.55 0 011.123-1.267c.409-.31.857-.563 1.334-.752a19.9 19.9 0 011.366-.479l.789.342c.364.411.729.73 1.092.959.274-.127.484-.363.576-.651.102-.297.193-.627.274-.992.121-.41.253-.821.393-1.232.147-.421.319-.832.517-1.231a3.665 3.665 0 01.242-1.642 1.842 1.842 0 00-.909-.411c-.082 0-.284-.045-.607-.137-.486-.411-.819-.764-1.001-1.06l-.517-.856c-.242-.593-.545-1.071-.909-1.437l-.607-.479.302-.684a.489.489 0 00.122-.342c0-.137-.081-.342-.242-.616-.082-.501-.082-.844 0-1.026l.12-.685c.325-.501.487-.775.487-.82l.545-.616a30.1 30.1 0 002.397-.787l2.397-.924 2.337-.856a29.541 29.541 0 012.396-.786c.284-.229.586-.377.911-.445.324-.069.626-.125.909-.171a9.24 9.24 0 01.669-.103c.202-.022.342-.103.424-.24l1.699-.615c1.011-.319 2.347-.672 4.005-1.06 1.658-.389 3.52-.696 5.583-.924l1.031-.069c.203.046.405.058.607.034.202-.023.404-.034.607-.034 1.821 0 2.974.616 3.459 1.848.349.216.674.468.971.753.273.264.536.537.789.82.193.295.44.55.727.754.689 1.186.911 2.235.669 3.147-.365.593-.831.935-1.396 1.026l-.668.411a10.494 10.494 0 00-1.002-.069h-.697c-1.011 0-2.185.069-3.519.206-1.336.137-2.701.33-4.097.582-1.359.241-2.706.55-4.035.923-1.294.365-2.427.753-3.399 1.164l-1.091.615c-.283.501-.445.901-.485 1.197l-.122.856-.182 1.163c-.688.958-1.032 2.098-1.032 3.421-.282.548-.465.946-.546 1.197-.081.252-.081.56 0 .924.769.366 1.497.502 2.184.411.692-.092 1.38-.206 2.063-.342a51.13 51.13 0 012.884-.479 22.423 22.423 0 013.064-.206h1.941l-.485.548.304.957c.242.137.414.229.515.274.102.046.212.115.334.206l.303.616c.162.09.314.25.455.479.142.228.233.57.274 1.026l-2.488 3.969-.851.274c-.687-.047-1.293.045-1.82.274-.283.09-.565.17-.849.238a3.815 3.815 0 01-.91.103 39.54 39.54 0 01-2.032.411l-1.67.274a20.59 20.59 0 00-2.123.376c-.689.159-1.336.376-1.943.65h-.849c-.324 0-.657.057-1.001.171l-.941.308c-.185.158-.33.357-.425.582-.084.215-.165.431-.242.649-.162.638-.385 1.164-.667 1.574v1.027c-.325.456-.517.809-.577 1.06-.06.251-.132.49-.212.719a2.127 2.127 0 00-.182.375 1.128 1.128 0 00-.061.377c.323.685.405 1.46.243 2.327z"/><path d="M668.12 78.134c-.242 1.55-.931 2.623-2.063 3.216-.526.045-.92.023-1.183-.069a7.525 7.525 0 01-.819-.342 3.522 3.522 0 00-.971-.343l-.668-.546a5.095 5.095 0 00-.303-.685 6.67 6.67 0 00-.425-.684 11.491 11.491 0 01-.971-1.71c-.243-1.323-.283-2.43-.121-3.32.16-.887.363-1.766.607-2.634l.485-1.71c-1.052-.638-1.841-1.552-2.367-2.738-.525-1.185-.829-2.326-.91-3.42.121-.867.343-1.563.667-2.087.325-.525.698-.947 1.124-1.267.408-.31.857-.563 1.334-.752.449-.176.905-.336 1.365-.479l.789.342c.365.411.728.73 1.092.959.275-.127.484-.363.577-.651.109-.325.2-.656.272-.992a31.5 31.5 0 01.395-1.232c.146-.421.319-.832.516-1.231a3.68 3.68 0 01.243-1.642 1.85 1.85 0 00-.91-.411c-.082 0-.284-.045-.607-.137-.486-.411-.819-.764-1.001-1.06l-.516-.856c-.243-.593-.547-1.071-.91-1.437l-.607-.479.303-.684a.489.489 0 00.122-.342c0-.137-.082-.342-.243-.616-.081-.501-.081-.844 0-1.026l.121-.685c.324-.501.486-.775.486-.82l.546-.616a30.233 30.233 0 002.397-.787l2.397-.924 2.337-.856a29.519 29.519 0 012.395-.786c.284-.229.587-.377.911-.445.324-.069.627-.125.91-.171a9.22 9.22 0 01.668-.103c.202-.022.343-.103.425-.24l1.698-.615c1.012-.319 2.347-.672 4.005-1.06 1.659-.389 3.519-.696 5.584-.924l1.031-.069c.202.046.405.058.607.034.201-.023.404-.034.607-.034 1.82 0 2.973.616 3.458 1.848a5.8 5.8 0 01.971.753c.273.264.536.537.789.82.193.295.44.55.728.754.688 1.186.911 2.235.668 3.147-.364.593-.83.935-1.396 1.026l-.668.411a10.473 10.473 0 00-1.001-.069h-.698c-1.011 0-2.184.069-3.518.206-1.336.137-2.702.33-4.097.582-1.36.241-2.707.55-4.036.923-1.294.365-2.427.753-3.398 1.164l-1.092.615c-.282.501-.445.901-.485 1.197l-.122.856-.182 1.163c-.687.958-1.031 2.098-1.031 3.421-.283.548-.465.946-.547 1.197-.08.252-.08.56 0 .924.769.366 1.498.502 2.185.411a32.726 32.726 0 002.063-.342 51.096 51.096 0 012.883-.479 22.434 22.434 0 013.064-.206h1.941l-.484.548.302.957c.244.137.416.229.517.274.101.046.212.115.334.206l.302.616c.163.09.315.25.455.479.142.228.234.57.274 1.026l-2.489 3.969-.849.274c-.687-.047-1.294.045-1.82.274-.28.09-.564.169-.85.238a3.812 3.812 0 01-.909.103 39.55 39.55 0 01-2.033.411l-1.669.274c-.714.088-1.423.214-2.124.376-.688.159-1.335.376-1.942.65h-.849c-.324 0-.657.057-1.002.171l-.941.308c-.184.158-.33.357-.424.582-.085.215-.165.431-.243.649-.162.638-.384 1.164-.667 1.574v1.027c-.324.456-.516.809-.576 1.06-.061.251-.132.49-.213.719a2.276 2.276 0 00-.182.375 1.127 1.127 0 00-.06.377c.323.685.404 1.46.242 2.327z"/><path d="M721.762 41.937c.04.319.051.559.03.718l-.06.445a3.15 3.15 0 00-.031.445c0 .159.041.399.122.718-.85 1.551-1.83 2.612-2.943 3.183a13.54 13.54 0 01-3.611 1.231l-3.975.786c-1.354.274-2.7.867-4.034 1.779-.526-.227-1.001-.227-1.427 0-.425.229-1.042.297-1.851.206a1.974 1.974 0 01-.909.582 19.35 19.35 0 00-1.093.376c.162.41.233.833.212 1.266-.02.434.031.787.152 1.06 1.416.137 2.984.115 4.703-.067a64.04 64.04 0 015.067-.343c.041.228.021.377-.061.444-.08.069-.101.195-.06.377.282.228.566.513.849.856.278.335.561.665.849.991.284.319.577.582.881.788.303.204.657.285 1.061.238.163.366.273.764.335 1.198.06.433.01.878-.152 1.334l-1.943 1.54c-.64.52-1.319.989-2.032 1.402-.71.412-1.463.745-2.245.993-.789.251-1.669.354-2.64.308h-.455c-.102 0-.232-.068-.394-.205-.324.227-.779.296-1.366.205-.587-.091-1.041-.023-1.366.206-.444-.229-.981-.332-1.608-.308-.627.022-1.183-.058-1.668-.24a24.28 24.28 0 00-1.76 3.079 28.837 28.837 0 00-1.396 3.489c1.376.229 2.519.32 3.429.274.91-.045 1.77-.126 2.579-.239l2.489-.343c.849-.113 1.921-.148 3.215-.102.809-.502 1.77-.833 2.883-.992a13.745 13.745 0 003.064-.787c.323.137.607.376.849.718l.699.958c.222.297.455.559.697.787.243.228.547.319.91.274.162.182.273.399.334.65.06.25.112.49.152.718.04.228.11.422.212.582.101.159.273.217.515.172-.607 1.505-1.304 2.657-2.093 3.454a7.96 7.96 0 01-2.7 1.813c-1.011.411-2.134.73-3.368.959a150.39 150.39 0 00-4.096.82c-.364.092-.667.081-.91-.034a1.971 1.971 0 00-.85-.17c-1.101.26-2.215.465-3.336.615a22.732 22.732 0 01-3.945.206 16.158 16.158 0 01-3.823-.581c-1.214-.343-2.205-.948-2.974-1.815a2.297 2.297 0 01-.637-1.128c-.101-.433-.374-.765-.819-.992a20.68 20.68 0 00-.243-1.985l-.364-2.292a33.417 33.417 0 01-.273-2.36 8.11 8.11 0 01.091-2.122 4.574 4.574 0 01.759-1.847c.376-.511.52-1.157.394-1.779a.447.447 0 00.365-.377c.04-.205.202-.285.485-.239.23-.786.494-1.562.788-2.326.277-.714.571-1.421.88-2.121l.911-2.088c.302-.706.596-1.494.879-2.361a5.684 5.684 0 01-1.244-1.95 11.867 11.867 0 01-.576-2.12 35.132 35.132 0 01-.303-2.19 15.794 15.794 0 00-.425-2.293 5.601 5.601 0 011.487-1.676 8.468 8.468 0 011.912-1.06 14.869 14.869 0 012.245-.685 89.151 89.151 0 002.548-.616 43.574 43.574 0 014.339-1.368 47.279 47.279 0 013.761-.787l3.854-.582a62.136 62.136 0 004.551-.82c.365.41.708.615 1.032.615.162-.411.354-.536.576-.377.223.161.313.036.273-.375a6.317 6.317 0 001.548 1.95c.638.532 1.341.98 2.093 1.334zm-549.648-.068a4.689 4.689 0 00-.213-.993l-.334-.992a17.555 17.555 0 01-.546-1.779c-.161-.638-.243-1.391-.243-2.258.082-.456.182-.787.304-.992.121-.205.243-.376.363-.513l.244-1.232h.909c.325.046.658.069 1.002.069h1.001c1.538 0 3.116-.069 4.734-.206l4.975-.479a73.329 73.329 0 016.008-.615l.394-.959.213-.479.667-.41c.931-.046 1.578.08 1.942.376.364.297.647.582.849.856a55.048 55.048 0 003.216-.377l3.399-.512 4.915-.685a35.823 35.823 0 014.854-.342c.689 0 1.335.023 1.942.068.607.046 1.194.114 1.759.206l.729.616c.163.321.367.62.607.889.242.274.526.548.849.82.607.548 1.203 1.233 1.79 2.053.587.822.799 2.03.637 3.627l-.303.685a4.2 4.2 0 01-.606.547l-.607.889h-.669c-.404 0-.707.035-.909.103l-1.274.548c-.202.068-.425.148-.668.238a11.125 11.125 0 00-1.032-.067h-.849c-1.214 0-2.528.09-3.944.274-1.38.176-2.756.381-4.127.615l-2.791.376-2.428.309-1.091 3.147c-.327.919-.67 1.831-1.032 2.736-.365.916-.709 1.84-1.031 2.772a36.127 36.127 0 00-.911 3.113c-.485.821-.89 1.608-1.214 2.36a13.771 13.771 0 00-.789 2.567 7.415 7.415 0 00-1.304 2.532l-.698 2.326-.243 1.027c-.282.319-.455.57-.515.752-.081.22-.194.428-.334.616a11.667 11.667 0 01-.486 1.711l-.243.719c-.08.25-.1.444-.06.58-.08.503-.202.89-.364 1.163 0 .275-.021.55-.061.822l-.121.82c-.073.283-.133.569-.183.856-.04.251-.02.491.062.719l.363.547c.122.183.224.411.304.685a.766.766 0 00.303.205.75.75 0 01.304.205c.324.319.627.502.911.547l.606.822c.243 1.642.02 2.919-.668 3.832-.727 1.049-1.941 1.573-3.641 1.573l-.849-.068c-.283-.319-.445-.525-.485-.616l-.911-.444c-.242-.115-.465-.332-.667-.651a.527.527 0 00-.304-.171.527.527 0 01-.303-.171 3.475 3.475 0 01-.971-.479l-.667-.41c.04-.457.06-.776.06-.959a6.546 6.546 0 01-.758-1.642 16.986 16.986 0 01-.455-1.847l-.335-1.369a3.664 3.664 0 00-.454-1.095c-.081-3.193.182-5.873.789-8.04a97.192 97.192 0 012.002-6.329c.41-1.109.794-2.227 1.154-3.352.366-1.151.69-2.315.97-3.49l.668-.753c.282-.274.465-.433.545-.478 0-.594.102-1.175.304-1.746.203-.57.425-1.152.667-1.745.162-.364.314-.729.455-1.094.142-.365.234-.685.274-.958a7.45 7.45 0 00-.759.034 8.186 8.186 0 00-.697.103 6.028 6.028 0 01-1.518.204c-.364 0-.627-.022-.789-.068a2.213 2.213 0 01-.909.308c-.283.023-.567.034-.851.034h-1.456c-.485 0-.869.069-1.152.206h-3.096a6.65 6.65 0 01-1.091-.103c-.405-.069-.83-.24-1.274-.514l-.426-.546c-.243-.503-.465-.777-.667-.822l-.667-.205v-.752zm572.828 38.727c-.647.047-1.446.024-2.397-.067a4.708 4.708 0 00-2.64.478 36.755 36.755 0 01-6.553-.889 42.225 42.225 0 01-6.129-1.847c-.405-.503-.809-.97-1.214-1.403-.404-.434-.949-.742-1.638-.924a10.134 10.134 0 01-2.367-3.182 21.414 21.414 0 01-1.456-4.003 25.655 25.655 0 01-.727-4.344c-.122-1.483-.162-2.908-.122-4.277.607-2.053 1.466-3.82 2.579-5.303a165.796 165.796 0 013.429-4.413c.525-.274.919-.559 1.183-.856.261-.295.545-.57.849-.821l.91-.753c.304-.25.576-.559.819-.923a7.084 7.084 0 002.215-.993 35.777 35.777 0 001.852-1.368 22.49 22.49 0 011.88-1.334 8.107 8.107 0 012.245-.959 3.904 3.904 0 011.154-.991l1.364-.752c.455-.245.901-.508 1.336-.788a2.907 2.907 0 001.001-1.094c.202.364.485.49.849.375.35-.108.694-.233 1.032-.375a.528.528 0 01.516.137c.137.131.268.269.394.41.121.136.233.217.333.239.102.023.193-.079.274-.308.202 0 .263.115.182.342a7.508 7.508 0 01-.182.48.953.953 0 01.819.239c.223.206.577.33 1.062.377.162.227.202.399.122.512-.082.114-.122.308-.122.582 1.214.411 1.982 1.06 2.307 1.95.322.889.343 1.814.06 2.771-.284.959-.789 1.848-1.518 2.669-.727.821-1.516 1.369-2.365 1.643a61.978 61.978 0 00-5.493 1.95c-1.719.707-3.125 1.745-4.216 3.113a9.821 9.821 0 00-2.58 1.265 16.418 16.418 0 00-2.124 1.78 28.757 28.757 0 00-1.881 2.052 43.576 43.576 0 01-1.85 2.088c.04.638-.051 1.128-.274 1.471-.225.346-.438.699-.637 1.06.082.684.222 1.289.424 1.813.202.522.425 1.036.669 1.54 2.67.912 5.511 1.483 8.525 1.71 3.02.229 6.045.366 9.072.411a7.16 7.16 0 001.001 1.266c.383.385.737.797 1.062 1.232.324.433.587.912.789 1.437.202.524.243 1.175.122 1.95a14.302 14.302 0 01-1.882 1.882l-2.063 1.743zm41.203-33.049c-1.012 0-2.104.081-3.277.24l-3.459.513c-.776.132-1.555.246-2.336.343a44.03 44.03 0 01-2.033.205c-.25.9-.533 1.79-.849 2.668a36.454 36.454 0 01-.911 2.258 33.103 33.103 0 00-.88 2.36c-.277.849-.53 1.704-.758 2.567a22.42 22.42 0 00-1.002 2.019c-.28.673-.493 1.372-.637 2.087a7.89 7.89 0 00-1.091 2.154 21.644 21.644 0 00-.547 1.952l-.242.82c-.243.274-.385.491-.425.651a.876.876 0 01-.304.444 4.236 4.236 0 01-.425 1.506 4.659 4.659 0 00-.182.649 2.66 2.66 0 00-.06.445c0 .456-.102.752-.304.889.041.229.041.468 0 .719l-.121.718c-.122.548-.162.982-.122 1.301.108.162.219.322.334.478.101.137.173.32.213.548.242.182.424.297.546.342.161.137.405.296.728.478l.546.685c.203 1.323.02 2.372-.546 3.147-.607.867-1.638 1.301-3.095 1.301h-.728c-.203-.228-.323-.411-.365-.548l-.787-.342c-.203-.09-.385-.274-.547-.548-.428-.22-.853-.448-1.274-.683l-.546-.343v-.82a4.537 4.537 0 01-.637-1.369 13.14 13.14 0 01-.334-1.506 16.462 16.462 0 00-.273-1.162 3.974 3.974 0 00-.395-.959c-.081-2.645.141-4.88.668-6.705a127.826 127.826 0 011.638-5.269l.971-2.771c.33-.955.613-1.926.849-2.908l.547-.684.697-1.814.577-1.471c.116-.306.228-.614.334-.924l.272-.786c-.242 0-.464.011-.667.034l-1.273.205a5.6 5.6 0 01-.607.035c-.284 0-.486-.024-.607-.069a3.15 3.15 0 01-1.457.341h-.607a1.548 1.548 0 01-.333-.033 1.209 1.209 0 00-.274-.034c-.405 0-.728.067-.97.204h-2.003l-.606.07a4.357 4.357 0 01-.911-.104 3.188 3.188 0 01-1.032-.444c-.485-.73-.809-1.117-.971-1.164l-.546-.82a4.944 4.944 0 00-.181-.788 13.39 13.39 0 01-.244-.854c-.17-.485-.321-.975-.455-1.471-.142-.525-.212-1.152-.212-1.882.04-.366.122-.64.243-.822.105-.157.206-.316.303-.479l.183-1.026.789.068h1.698c1.294 0 2.61-.057 3.945-.171l4.126-.375 5.036-.548c.163-.411.323-.798.485-1.164l.607-.341c.729-.047 1.244.056 1.548.307.303.252.556.49.759.719l2.7-.308a41.52 41.52 0 002.761-.444c1.382-.23 2.767-.435 4.156-.617a31.303 31.303 0 014.035-.273c.547-.001 1.094.022 1.639.068a12.72 12.72 0 011.457.205l.607.48c.12.273.292.524.515.752.227.233.46.461.698.684.485.502.97 1.095 1.456 1.78.485.683.668 1.687.546 3.01-.323.548-.566.867-.728.957l-.546.822-.607-.068c-.242 0-.465.034-.667.102-.206.07-.409.15-.607.24a4.87 4.87 0 01-.486.24 3.478 3.478 0 01-.545.171l-1.578-.07z"/></g><g stroke="#000" stroke-width="2.51"><path d="M150.473 5.303l-.117 96.769" fill="none"/><path d="M61.361 56.147l-30.432 51.214s0-.046-25.749-42.863l5.099 8.479c27.685-18.88 33.382.54 28.482.972-5.674-6.839-14.714 10.095 7.122 8.247l27.792-46.772" fill="#375ca5" fill-rule="nonzero"/><path d="M73.675 35.424l8.876 8.361 9.418-9.281 8.813 8.866 8.852-8.116 8.22 13.741L91.646 5.18 61.361 56.147" fill="#e8e8e8" fill-rule="nonzero"/></g><path d="M74.545 67.823c-.073-.454-.164-.736-.272-.84.253-.631.443-1.253.57-1.866.127-.613.226-1.2.297-1.761.073-.49.154-.946.244-1.366.087-.411.205-.815.352-1.21.614-.139 1.074-.393 1.382-.761.306-.368.55-.692.731-.972.649-.035 1.074.052 1.273.262.198.21.424.561.677 1.052.181.385.433.796.759 1.235.324.437.811.779 1.462 1.025.105.375.231.743.379 1.103.154.372.316.74.488 1.104.331.752.638 1.514.921 2.286.289.789.451 1.534.487 2.233-.433.807-.768 1.735-1.002 2.787a18.817 18.817 0 00-.434 3.178 19.154 19.154 0 00.082 3.076c.108.981.289 1.804.541 2.47l.326.84 1.191-.104a28.491 28.491 0 003.521-1.078 17.435 17.435 0 002.925-1.445 20.743 20.743 0 002.6-1.918c.914-.8 1.782-1.651 2.6-2.549a18.574 18.574 0 002.329-3.338 23.808 23.808 0 001.706-3.864c.452-1.33.804-2.662 1.057-3.993.252-1.332.415-2.576.487-3.732.686-.315 1.066-.822 1.138-1.524l-.163-.683a.794.794 0 01-.136-.5c.019-.156.065-.307.136-.446.289-.807.903-1.402 1.842-1.787.637.411 1.244.867 1.815 1.366a24.4 24.4 0 011.543 1.472c.073.946.217 1.761.433 2.444.211.665.446 1.323.705 1.971.243.571.469 1.149.677 1.734.199.56.335 1.244.406 2.05a19.52 19.52 0 00-.785 2.969c-.169.97-.323 1.942-.461 2.917l-.108.578c-.659 1.102-1.3 2.215-1.922 3.338a51.225 51.225 0 00-1.544 2.969 3.39 3.39 0 00-.57.736c-.16.276-.313.557-.459.841a5.05 5.05 0 00-.299.526c-.126.245-.244.42-.352.525l-1.3-.474-.325 1.63-.866.211-.651.735c-.831 1.402-1.706 2.575-2.627 3.521a17.717 17.717 0 01-3.087 2.523 29.64 29.64 0 01-3.847 2.077 115.847 115.847 0 01-4.902 2.075 16.706 16.706 0 00-1.868-.183 44.198 44.198 0 01-1.544-.079c-.488 0-.976-.017-1.462-.053a42.176 42.176 0 01-1.626-.158 1.418 1.418 0 00-.596-.683 1.471 1.471 0 00-.703-.211c-.723-.35-1.264-.84-1.626-1.471a55.227 55.227 0 01-1.137-2.102 39.529 39.529 0 00-.569-1.261 6.992 6.992 0 00-.731-1.21l1.083-.315-1.409-1.577a6.565 6.565 0 00-.351-.315 2.263 2.263 0 01-.352-.367v-.999a139.362 139.362 0 01-.19-7.962c.018-2.435.352-4.582 1.003-6.439l.108-.263zM12.174 38.538a33.542 33.542 0 00-.51-1.109 11.747 11.747 0 00-.512-.951l-1.073-2.271a19.037 19.037 0 01-.863-2.322l.579-2.989a233.83 233.83 0 012.136-9.65c.418-1.712.843-3.18 1.272-4.401l1.316-3.456a26.444 26.444 0 011.6-3.373C16.704 6.988 17.33 6.11 18 5.381c.668-.728 1.386-1.159 2.153-1.291.206.283.43.504.671.665.243.159.468.276.676.348.512.757 1.08 1.474 1.7 2.145.55.585 1.206 1.161 1.966 1.729a33.98 33.98 0 01-.95 3.486l-1.293 3.85-1.317 3.744a54.044 54.044 0 00-1.024 3.117c-.243.796-.46 1.6-.652 2.41-.214.923-.407 1.85-.577 2.781a87.493 87.493 0 00-.585 3.568c.488-.136 1.04-.411 1.653-.825a18.868 18.868 0 001.71-1.296 27.65 27.65 0 001.844-1.662c.716-.7 1.403-1.429 2.058-2.186a22.177 22.177 0 001.562-2.061c.477-.713.972-1.496 1.486-2.349l1.832-3.057 1.991-3.237a71.258 71.258 0 014.162-6.185c.671-.887 1.287-1.573 1.848-2.057.38.389.818.797 1.319 1.223.5.424 1.044.728 1.635.909.216.354.447.699.693 1.033l.644.874.746 1.058c.23.333.428.687.589 1.058-.038.28-.102.647-.194 1.102l-.302 1.495-.357 1.652-.357 1.626-.819 3.565a33.76 33.76 0 00-.386 1.888 12.47 12.47 0 00-.142 1.155c-.021.315-.034.753-.04 1.313a7.74 7.74 0 00.092 1.263c.067.396.141.791.222 1.184.083.405.244.783.484 1.136l2.526-1.918c.701-.519 1.378-1.257 2.033-2.213a28.635 28.635 0 001.913-3.292 65.266 65.266 0 001.842-4.027l1.822-4.475 1.313-3.325a69.067 69.067 0 011.364-3.139c.426-.92.879-1.826 1.359-2.719.444-.819.877-1.506 1.301-2.063a19.66 19.66 0 012.408 1.812 11.18 11.18 0 011.754 1.99c.498.724.888 1.55 1.175 2.482.286.931.492 2.028.618 3.292a66.544 66.544 0 00-2.186 4.496l-2.033 4.658-2.646 6.043a54.135 54.135 0 01-3.009 5.723 33.125 33.125 0 01-3.679 4.982 19.673 19.673 0 01-4.66 3.815c-.41-.1-.829-.157-1.25-.171a2.635 2.635 0 00-.968.147 2.62 2.62 0 00-.71.414 8.24 8.24 0 01-3.413-3.005 47.682 47.682 0 01-2.511-4.415c-.1-.243-.211-.48-.333-.713a32.565 32.565 0 00-.383-.713l-.871-1.638-.511-1.005-.738.676-1.107.987-.633.624a102.604 102.604 0 01-3.319 2.935 31.429 31.429 0 01-3.524 2.592 18.698 18.698 0 01-3.909 1.877c-1.379.476-2.851.724-4.418.742l-1.402-.697a16.183 16.183 0 01-1.971-1.124c-.519-.356-1.122-.905-1.811-1.649z" fill-rule="nonzero"/></svg>
